<svg width="100%" height="100%" viewBox="0 0 558 217" version="1.1" xmlns="http://www.w3.org/2000/svg" xmlns:xlink="http://www.w3.org/1999/xlink" xml:space="preserve" style="fill-rule:evenodd;clip-rule:evenodd;stroke-linejoin:round;stroke-miterlimit:1.41421;">
    <g transform="matrix(1,0,0,1,-298.893,-34.016)">
        <rect x="298.893" y="34.016" width="557.17" height="11.339" style="fill:white;"/>
        <rect x="737.008" y="233.575" width="119.055" height="10.205" style="fill:white;"/>
        <rect x="298.967" y="233.575" width="119.143" height="10.205" style="fill:white;"/>
        <rect x="844.724" y="34.016" width="11.339" height="209.761" style="fill:white;"/>
        <rect x="298.893" y="42.947" width="11.218" height="200.833" style="fill:white;"/>
        <g transform="matrix(0.198547,0,0,0.198547,-130.115,-69.1103)">
            <path d="M2945.39,1539.6C2945.39,1547.1 2945.94,1553.23 2947.04,1557.98C2948.14,1562.73 2949.44,1565.4 2950.94,1566C2951.54,1566.3 2952.26,1566.5 2953.12,1566.6C2953.97,1566.7 2954.57,1566.85 2954.91,1567.05C2955.26,1567.25 2955.44,1567.65 2955.44,1568.25C2955.44,1570.95 2954.72,1573.15 2953.26,1574.85C2951.82,1576.55 2949.64,1577.4 2946.74,1577.4C2943.84,1577.4 2941.59,1575.55 2939.99,1571.85C2938.39,1568.15 2937.59,1563.4 2937.59,1557.6C2935.09,1563.2 2931.41,1567.9 2926.57,1571.7C2921.72,1575.5 2916.26,1577.4 2910.22,1577.4C2904.16,1577.4 2898.94,1575.4 2894.54,1571.4C2886.54,1564.1 2882.54,1553.65 2882.54,1540.05C2882.54,1529.15 2885.69,1519.65 2891.99,1511.55C2898.29,1503.45 2906.39,1499.4 2916.29,1499.4C2923.79,1499.4 2930.29,1501.95 2935.79,1507.05C2935.79,1501.95 2937.69,1499.4 2941.49,1499.4C2946.09,1499.4 2948.39,1502.92 2948.39,1509.98C2948.39,1517.03 2947.39,1526.9 2945.39,1539.6ZM2936.69,1540.95L2935.94,1517.85C2929.94,1512.05 2923.66,1509.15 2917.12,1509.15C2910.57,1509.15 2904.94,1512.1 2900.24,1518C2895.54,1523.9 2893.19,1530.98 2893.19,1539.23C2893.19,1547.48 2894.72,1554.28 2897.76,1559.62C2900.82,1564.98 2905.14,1567.65 2910.74,1567.65C2916.34,1567.65 2921.44,1565.15 2926.04,1560.15C2930.64,1555.15 2934.19,1548.75 2936.69,1540.95Z" style="fill:none;"/>
        </g>
        <g transform="matrix(0.198547,0,0,0.198547,-130.115,-69.1103)">
            <path d="M3063.59,1560.45C3066.09,1560.45 3067.34,1561.78 3067.34,1564.42C3067.34,1567.08 3064.44,1570.03 3058.64,1573.28C3052.84,1576.53 3046.74,1578.15 3040.34,1578.15C3029.84,1578.15 3021.09,1574.28 3014.09,1566.53C3007.09,1558.78 3003.59,1549.4 3003.59,1538.4C3003.59,1527.4 3007.12,1518.03 3014.16,1510.28C3021.22,1502.53 3030.49,1498.65 3041.99,1498.65C3048.29,1498.65 3053.87,1500.08 3058.72,1502.92C3063.57,1505.78 3065.99,1508.7 3065.99,1511.7C3065.99,1513.3 3065.49,1514.62 3064.49,1515.67C3063.49,1516.73 3062.34,1517.25 3061.04,1517.25C3059.74,1517.25 3058.24,1516.5 3056.54,1515C3051.34,1510.6 3046.04,1508.4 3040.64,1508.4C3033.74,1508.4 3027.72,1511.3 3022.57,1517.1C3017.41,1522.9 3014.84,1529.95 3014.84,1538.25C3014.84,1546.55 3017.44,1553.65 3022.64,1559.55C3027.84,1565.45 3034.29,1568.4 3041.99,1568.4C3047.89,1568.4 3053.64,1566.4 3059.24,1562.4C3061.14,1561.1 3062.59,1560.45 3063.59,1560.45Z" style="fill:none;"/>
        </g>
        <g transform="matrix(0.198547,0,0,0.198547,-130.115,-69.1103)">
            <path d="M3147.14,1528.65L3146.39,1552.2C3146.39,1555 3146.41,1557.12 3146.47,1558.58C3146.51,1560.03 3146.82,1561.53 3147.37,1563.08C3147.91,1564.62 3148.59,1565.58 3149.39,1565.92C3150.19,1566.28 3151.01,1566.5 3151.87,1566.6C3152.72,1566.7 3153.32,1566.85 3153.66,1567.05C3154.01,1567.25 3154.19,1567.65 3154.19,1568.25C3154.19,1570.85 3153.37,1573.03 3151.72,1574.78C3150.07,1576.53 3148.14,1577.4 3145.94,1577.4C3142.14,1577.4 3139.51,1575.9 3138.07,1572.9C3136.62,1569.9 3135.89,1565.5 3135.89,1559.7L3136.49,1532.1C3136.49,1525.3 3135.04,1519.8 3132.14,1515.6C3129.24,1511.4 3125.22,1509.3 3120.07,1509.3C3114.91,1509.3 3109.94,1512.15 3105.14,1517.85C3100.34,1523.55 3096.99,1530 3095.09,1537.2L3095.54,1569.75C3095.54,1574.85 3093.64,1577.4 3089.84,1577.4C3085.24,1577.4 3082.94,1573.88 3082.94,1566.83C3082.94,1559.78 3083.94,1549.9 3085.94,1537.2C3085.94,1530.4 3085.49,1517.58 3084.59,1498.73C3083.69,1479.88 3083.24,1469.7 3083.24,1468.2C3083.24,1466.7 3083.76,1465.28 3084.82,1463.92C3085.87,1462.58 3087.29,1461.9 3089.09,1461.9C3090.89,1461.9 3092.32,1462.58 3093.37,1463.92C3094.41,1465.28 3094.94,1467.1 3094.94,1469.4L3094.94,1518.45C3102.24,1505.75 3111.24,1499.4 3121.94,1499.4C3129.94,1499.4 3136.14,1502.25 3140.54,1507.95C3144.94,1513.65 3147.14,1520.55 3147.14,1528.65L3147.14,1528.65Z" style="fill:none;"/>
        </g>
        <g transform="matrix(0.198547,0,0,0.198547,-130.115,-69.1103)">
            <path d="M3181.49,1511.7L3180.29,1544.7C3180.29,1551.5 3181.74,1557.03 3184.64,1561.28C3187.54,1565.53 3191.57,1567.65 3196.72,1567.65C3201.87,1567.65 3206.84,1564.78 3211.64,1559.03C3216.44,1553.28 3219.79,1546.8 3221.69,1539.6L3221.24,1507.05C3221.24,1501.95 3223.14,1499.4 3226.94,1499.4C3231.54,1499.4 3233.84,1502.92 3233.84,1509.98C3233.84,1517.03 3232.84,1526.9 3230.84,1539.6C3230.84,1547.1 3231.39,1553.23 3232.49,1557.98C3233.59,1562.73 3234.89,1565.4 3236.39,1566C3236.99,1566.3 3237.72,1566.5 3238.57,1566.6C3239.41,1566.7 3240.01,1566.85 3240.37,1567.05C3240.72,1567.25 3240.89,1567.65 3240.89,1568.25C3240.89,1570.95 3240.07,1573.15 3238.41,1574.85C3236.76,1576.55 3234.69,1577.4 3232.19,1577.4C3225.89,1577.4 3222.74,1571 3222.74,1558.2C3215.34,1571 3206.04,1577.4 3194.84,1577.4C3186.84,1577.4 3180.64,1574.42 3176.24,1568.48C3171.84,1562.53 3169.64,1555.25 3169.64,1546.65L3170.54,1524C3170.54,1520 3170.14,1516.28 3169.34,1512.83C3168.54,1509.38 3168.14,1506.9 3168.14,1505.4C3168.14,1503.9 3168.74,1502.53 3169.94,1501.28C3171.14,1500.03 3172.69,1499.4 3174.59,1499.4C3179.19,1499.4 3181.49,1503.5 3181.49,1511.7L3181.49,1511.7Z" style="fill:none;"/>
        </g>
        <g transform="matrix(0.198547,0,0,0.198547,-130.115,-69.1103)">
            <path d="M3268.79,1541.55L3269.24,1569.75C3269.24,1574.85 3267.34,1577.4 3263.54,1577.4C3258.94,1577.4 3256.64,1573.88 3256.64,1566.83C3256.64,1559.78 3257.64,1549.9 3259.64,1537.2C3259.64,1533 3259.22,1527.25 3258.37,1519.95C3257.51,1512.65 3257.09,1508.1 3257.09,1506.3C3257.09,1504.5 3257.62,1502.9 3258.66,1501.5C3259.72,1500.1 3261.14,1499.4 3262.94,1499.4C3264.74,1499.4 3266.16,1500.1 3267.22,1501.5C3268.26,1502.9 3268.79,1504.42 3268.79,1506.08C3268.79,1507.73 3268.76,1509.83 3268.72,1512.38C3268.66,1514.92 3268.64,1517.05 3268.64,1518.75C3270.64,1513.65 3273.76,1509.15 3278.01,1505.25C3282.26,1501.35 3286.64,1499.4 3291.14,1499.4C3295.64,1499.4 3299.12,1500.33 3301.57,1502.17C3304.01,1504.03 3305.24,1506 3305.24,1508.1C3305.24,1510.2 3304.69,1511.85 3303.59,1513.05C3302.49,1514.25 3301.07,1514.85 3299.32,1514.85C3297.57,1514.85 3295.66,1513.92 3293.62,1512.08C3291.57,1510.23 3289.94,1509.3 3288.74,1509.3C3285.44,1509.3 3281.59,1512.85 3277.19,1519.95C3272.79,1527.05 3269.99,1534.25 3268.79,1541.55Z" style="fill:none;"/>
        </g>
        <g transform="matrix(0.198547,0,0,0.198547,-130.115,-69.1103)">
            <path d="M3373.19,1560.45C3375.69,1560.45 3376.94,1561.78 3376.94,1564.42C3376.94,1567.08 3374.04,1570.03 3368.24,1573.28C3362.44,1576.53 3356.34,1578.15 3349.94,1578.15C3339.44,1578.15 3330.69,1574.28 3323.69,1566.53C3316.69,1558.78 3313.19,1549.4 3313.19,1538.4C3313.19,1527.4 3316.72,1518.03 3323.76,1510.28C3330.82,1502.53 3340.09,1498.65 3351.59,1498.65C3357.89,1498.65 3363.47,1500.08 3368.32,1502.92C3373.16,1505.78 3375.59,1508.7 3375.59,1511.7C3375.59,1513.3 3375.09,1514.62 3374.09,1515.67C3373.09,1516.73 3371.94,1517.25 3370.64,1517.25C3369.34,1517.25 3367.84,1516.5 3366.14,1515C3360.94,1510.6 3355.64,1508.4 3350.24,1508.4C3343.34,1508.4 3337.32,1511.3 3332.16,1517.1C3327.01,1522.9 3324.44,1529.95 3324.44,1538.25C3324.44,1546.55 3327.04,1553.65 3332.24,1559.55C3337.44,1565.45 3343.89,1568.4 3351.59,1568.4C3357.49,1568.4 3363.24,1566.4 3368.84,1562.4C3370.74,1561.1 3372.19,1560.45 3373.19,1560.45Z" style="fill:none;"/>
        </g>
        <g transform="matrix(0.198547,0,0,0.198547,-130.115,-69.1103)">
            <path d="M3456.74,1528.65L3455.99,1552.2C3455.99,1555 3456.01,1557.12 3456.07,1558.58C3456.12,1560.03 3456.41,1561.53 3456.97,1563.08C3457.51,1564.62 3458.19,1565.58 3458.99,1565.92C3459.79,1566.28 3460.62,1566.5 3461.47,1566.6C3462.32,1566.7 3462.91,1566.85 3463.26,1567.05C3463.62,1567.25 3463.79,1567.65 3463.79,1568.25C3463.79,1570.85 3462.97,1573.03 3461.32,1574.78C3459.66,1576.53 3457.74,1577.4 3455.54,1577.4C3451.74,1577.4 3449.12,1575.9 3447.66,1572.9C3446.22,1569.9 3445.49,1565.5 3445.49,1559.7L3446.09,1532.1C3446.09,1525.3 3444.64,1519.8 3441.74,1515.6C3438.84,1511.4 3434.82,1509.3 3429.66,1509.3C3424.51,1509.3 3419.54,1512.15 3414.74,1517.85C3409.94,1523.55 3406.59,1530 3404.69,1537.2L3405.14,1569.75C3405.14,1574.85 3403.24,1577.4 3399.44,1577.4C3394.84,1577.4 3392.54,1573.88 3392.54,1566.83C3392.54,1559.78 3393.54,1549.9 3395.54,1537.2C3395.54,1530.4 3395.09,1517.58 3394.19,1498.73C3393.29,1479.88 3392.84,1469.7 3392.84,1468.2C3392.84,1466.7 3393.37,1465.28 3394.41,1463.92C3395.47,1462.58 3396.89,1461.9 3398.69,1461.9C3400.49,1461.9 3401.91,1462.58 3402.97,1463.92C3404.01,1465.28 3404.54,1467.1 3404.54,1469.4L3404.54,1518.45C3411.84,1505.75 3420.84,1499.4 3431.54,1499.4C3439.54,1499.4 3445.74,1502.25 3450.14,1507.95C3454.54,1513.65 3456.74,1520.55 3456.74,1528.65L3456.74,1528.65Z" style="fill:none;"/>
        </g>
        <g transform="matrix(0.198547,0,0,0.198547,-130.115,-69.1103)">
            <path d="M3527.09,1469.17C3528.09,1470.52 3528.59,1472.22 3528.59,1474.27C3528.59,1476.32 3527.89,1478.37 3526.49,1480.42C3525.09,1482.47 3523.34,1483.5 3521.24,1483.5C3519.14,1483.5 3517.57,1482.8 3516.51,1481.39C3515.47,1480 3514.94,1478.14 3514.94,1475.85C3514.94,1473.55 3515.66,1471.52 3517.12,1469.77C3518.57,1468.02 3520.34,1467.14 3522.44,1467.14C3524.54,1467.14 3526.09,1467.82 3527.09,1469.17L3527.09,1469.17ZM3526.64,1538.39L3527.39,1569.89C3527.39,1574.89 3525.49,1577.39 3521.69,1577.39C3517.89,1577.39 3515.99,1574.89 3515.99,1569.89L3516.74,1538.39L3515.99,1506.89C3515.99,1501.89 3517.89,1499.39 3521.69,1499.39C3525.49,1499.39 3527.39,1501.89 3527.39,1506.89L3526.64,1538.39Z" style="fill:none;"/>
        </g>
        <g transform="matrix(0.198547,0,0,0.198547,-130.115,-69.1103)">
            <path d="M3612.89,1528.65L3612.14,1552.2C3612.14,1555 3612.16,1557.12 3612.22,1558.58C3612.26,1560.03 3612.57,1561.53 3613.12,1563.08C3613.66,1564.62 3614.34,1565.58 3615.14,1565.92C3615.94,1566.28 3616.76,1566.5 3617.62,1566.6C3618.47,1566.7 3619.07,1566.85 3619.41,1567.05C3619.76,1567.25 3619.94,1567.65 3619.94,1568.25C3619.94,1570.85 3619.12,1573.03 3617.47,1574.78C3615.82,1576.53 3613.89,1577.4 3611.69,1577.4C3607.89,1577.4 3605.26,1575.9 3603.82,1572.9C3602.37,1569.9 3601.64,1565.5 3601.64,1559.7L3602.24,1532.1C3602.24,1525.3 3600.79,1519.8 3597.89,1515.6C3594.99,1511.4 3590.97,1509.3 3585.82,1509.3C3580.66,1509.3 3575.69,1512.15 3570.89,1517.85C3566.09,1523.55 3562.74,1530 3560.84,1537.2L3561.29,1569.75C3561.29,1574.85 3559.39,1577.4 3555.59,1577.4C3550.99,1577.4 3548.69,1573.88 3548.69,1566.83C3548.69,1559.78 3549.69,1549.9 3551.69,1537.2C3551.69,1533 3551.26,1527.2 3550.41,1519.8C3549.57,1512.4 3549.14,1507.83 3549.14,1506.08C3549.14,1504.33 3549.66,1502.78 3550.72,1501.42C3551.76,1500.08 3553.19,1499.4 3554.99,1499.4C3556.79,1499.4 3558.22,1500.08 3559.26,1501.42C3560.32,1502.78 3560.84,1504.3 3560.84,1506C3560.84,1507.7 3560.82,1509.78 3560.76,1512.23C3560.72,1514.67 3560.69,1516.75 3560.69,1518.45C3567.99,1505.75 3576.99,1499.4 3587.69,1499.4C3595.69,1499.4 3601.89,1502.25 3606.29,1507.95C3610.69,1513.65 3612.89,1520.55 3612.89,1528.65L3612.89,1528.65Z" style="fill:none;"/>
        </g>
        <g transform="matrix(0.198547,0,0,0.198547,-130.115,-69.1103)">
            <path d="M3688.49,1510.05L3688.19,1545.6C3688.19,1554.7 3688.57,1560.65 3689.32,1563.45C3690.07,1566.25 3692.04,1567.65 3695.24,1567.65C3696.74,1567.65 3698.57,1567.12 3700.72,1566.08C3702.87,1565.03 3704.29,1564.5 3704.99,1564.5C3707.09,1564.5 3708.14,1565.53 3708.14,1567.58C3708.14,1569.62 3706.29,1571.78 3702.59,1574.03C3698.89,1576.28 3695.24,1577.4 3691.64,1577.4C3682.94,1577.4 3678.59,1571 3678.59,1558.2L3678.44,1510.05C3675.14,1510.35 3672.84,1510.5 3671.54,1510.5C3666.54,1510.5 3664.04,1508.85 3664.04,1505.55C3664.04,1502.25 3666.54,1500.6 3671.54,1500.6C3671.94,1500.6 3674.14,1500.7 3678.14,1500.9L3677.84,1484.1C3677.84,1479.1 3679.74,1476.6 3683.54,1476.6C3687.34,1476.6 3689.24,1479.1 3689.24,1484.1L3688.79,1501.05L3700.94,1500.45C3705.94,1500.45 3708.44,1502.15 3708.44,1505.55C3708.44,1508.75 3705.94,1510.35 3700.94,1510.35C3700.04,1510.35 3695.89,1510.25 3688.49,1510.05L3688.49,1510.05Z" style="fill:none;"/>
        </g>
        <g transform="matrix(0.198547,0,0,0.198547,-130.115,-69.1103)">
            <path d="M3785.69,1528.65L3784.94,1552.2C3784.94,1555 3784.97,1557.12 3785.01,1558.58C3785.07,1560.03 3785.37,1561.53 3785.91,1563.08C3786.47,1564.62 3787.14,1565.58 3787.94,1565.92C3788.74,1566.28 3789.57,1566.5 3790.41,1566.6C3791.26,1566.7 3791.87,1566.85 3792.22,1567.05C3792.57,1567.25 3792.74,1567.65 3792.74,1568.25C3792.74,1570.85 3791.91,1573.03 3790.26,1574.78C3788.62,1576.53 3786.69,1577.4 3784.49,1577.4C3780.69,1577.4 3778.07,1575.9 3776.62,1572.9C3775.16,1569.9 3774.44,1565.5 3774.44,1559.7L3775.04,1532.1C3775.04,1525.3 3773.59,1519.8 3770.69,1515.6C3767.79,1511.4 3763.76,1509.3 3758.62,1509.3C3753.47,1509.3 3748.49,1512.15 3743.69,1517.85C3738.89,1523.55 3735.54,1530 3733.64,1537.2L3734.09,1569.75C3734.09,1574.85 3732.19,1577.4 3728.39,1577.4C3723.79,1577.4 3721.49,1573.88 3721.49,1566.83C3721.49,1559.78 3722.49,1549.9 3724.49,1537.2C3724.49,1530.4 3724.04,1517.58 3723.14,1498.73C3722.24,1479.88 3721.79,1469.7 3721.79,1468.2C3721.79,1466.7 3722.32,1465.28 3723.37,1463.92C3724.41,1462.58 3725.84,1461.9 3727.64,1461.9C3729.44,1461.9 3730.87,1462.58 3731.91,1463.92C3732.97,1465.28 3733.49,1467.1 3733.49,1469.4L3733.49,1518.45C3740.79,1505.75 3749.79,1499.4 3760.49,1499.4C3768.49,1499.4 3774.69,1502.25 3779.09,1507.95C3783.49,1513.65 3785.69,1520.55 3785.69,1528.65L3785.69,1528.65Z" style="fill:none;"/>
        </g>
        <g transform="matrix(0.198547,0,0,0.198547,-130.115,-69.1103)">
            <path d="M3854.92,1532.1C3858.97,1529.8 3860.99,1526.7 3860.99,1522.8C3860.99,1518.9 3859.67,1515.53 3857.02,1512.67C3854.37,1509.83 3850.6,1508.4 3845.7,1508.4C3839.1,1508.4 3833.55,1510.88 3829.05,1515.83C3824.55,1520.78 3821.64,1526.55 3820.35,1533.15C3825.85,1534.75 3831.97,1535.55 3838.72,1535.55C3845.47,1535.55 3850.87,1534.4 3854.92,1532.1ZM3864.07,1505.4C3869.12,1509.9 3871.64,1515.75 3871.64,1522.95C3871.64,1530.15 3868.52,1535.62 3862.27,1539.38C3856.02,1543.12 3848.35,1545 3839.24,1545C3834.05,1545 3827.7,1544.25 3820.2,1542.75C3820.8,1549.75 3823.42,1555.78 3828.07,1560.83C3832.72,1565.88 3837.89,1568.4 3843.6,1568.4C3846.99,1568.4 3850.14,1567.92 3853.05,1566.98C3855.95,1566.03 3858.14,1565 3859.64,1563.9C3863.64,1560.8 3866.27,1559.25 3867.52,1559.25C3868.77,1559.25 3869.77,1559.62 3870.52,1560.38C3871.27,1561.12 3871.64,1562.05 3871.64,1563.15C3871.64,1565.95 3868.77,1569.15 3863.02,1572.75C3857.27,1576.35 3851.05,1578.15 3844.35,1578.15C3833.95,1578.15 3825.7,1574.5 3819.6,1567.2C3813.49,1559.9 3810.2,1551.1 3809.7,1540.8C3804.39,1539.2 3801.74,1536.6 3801.74,1533C3801.74,1531.5 3802.17,1530.33 3803.02,1529.48C3803.87,1528.62 3804.89,1528.2 3806.1,1528.2C3807.3,1528.2 3808.8,1528.65 3810.6,1529.55C3812.8,1520.55 3816.97,1513.15 3823.12,1507.35C3829.27,1501.55 3836.37,1498.65 3844.42,1498.65C3852.47,1498.65 3859.02,1500.9 3864.07,1505.4L3864.07,1505.4Z" style="fill:none;"/>
        </g>
        <g transform="matrix(0.198547,0,0,0.198547,-130.115,-69.1103)">
            <path d="M3974.77,1558.8C3979.62,1552.9 3982.05,1545.98 3982.05,1538.03C3982.05,1530.08 3980.3,1523.28 3976.8,1517.62C3973.3,1511.98 3968.55,1509.15 3962.55,1509.15C3952.05,1509.15 3943.39,1517.8 3936.6,1535.1L3936.6,1558.95C3942.6,1564.75 3949.7,1567.65 3957.89,1567.65C3964.3,1567.65 3969.92,1564.7 3974.77,1558.8L3974.77,1558.8ZM3927.3,1547.4L3927.45,1541.7L3927.45,1539.3C3927.45,1535.1 3926.99,1528.95 3926.1,1520.85C3925.2,1512.75 3924.74,1507.83 3924.74,1506.08C3924.74,1504.33 3925.27,1502.78 3926.32,1501.42C3927.37,1500.08 3928.8,1499.4 3930.6,1499.4C3932.39,1499.4 3933.82,1500.08 3934.87,1501.42C3935.92,1502.78 3936.45,1504.3 3936.45,1506C3936.45,1507.7 3936.42,1509.83 3936.37,1512.38C3936.32,1514.92 3936.3,1517.05 3936.3,1518.75C3939.6,1512.65 3943.3,1507.9 3947.39,1504.5C3951.49,1501.1 3956.8,1499.4 3963.3,1499.4C3969.8,1499.4 3975.39,1501.5 3980.1,1505.7C3984.8,1509.9 3988.14,1514.75 3990.14,1520.25C3992.14,1525.75 3993.14,1531.25 3993.14,1536.75C3993.14,1547.65 3989.85,1557.15 3983.24,1565.25C3976.64,1573.35 3968.2,1577.4 3957.89,1577.4C3950.39,1577.4 3943.3,1574.95 3936.6,1570.05C3936.39,1582.15 3936.3,1591.12 3936.3,1596.98C3936.3,1602.83 3935.8,1606.53 3934.8,1608.08C3933.8,1609.62 3932.24,1610.4 3930.14,1610.4C3928.05,1610.4 3926.32,1609.53 3924.97,1607.78C3923.62,1606.03 3922.95,1603.5 3922.95,1600.2C3922.95,1596.9 3923.14,1592.98 3923.55,1588.42C3923.95,1583.88 3924.55,1577.88 3925.35,1570.42C3926.14,1562.98 3926.8,1556.25 3927.3,1550.25L3927.3,1547.4L3927.3,1547.4Z" style="fill:none;"/>
        </g>
        <g transform="matrix(0.198547,0,0,0.198547,-130.115,-69.1103)">
            <path d="M4070.24,1539.6C4070.24,1547.1 4070.79,1553.23 4071.89,1557.98C4072.99,1562.73 4074.29,1565.4 4075.79,1566C4076.39,1566.3 4077.12,1566.5 4077.97,1566.6C4078.82,1566.7 4079.41,1566.85 4079.76,1567.05C4080.12,1567.25 4080.29,1567.65 4080.29,1568.25C4080.29,1570.95 4079.57,1573.15 4078.12,1574.85C4076.66,1576.55 4074.49,1577.4 4071.59,1577.4C4068.69,1577.4 4066.44,1575.55 4064.84,1571.85C4063.24,1568.15 4062.44,1563.4 4062.44,1557.6C4059.94,1563.2 4056.26,1567.9 4051.41,1571.7C4046.57,1575.5 4041.12,1577.4 4035.07,1577.4C4029.01,1577.4 4023.79,1575.4 4019.39,1571.4C4011.39,1564.1 4007.39,1553.65 4007.39,1540.05C4007.39,1529.15 4010.54,1519.65 4016.84,1511.55C4023.14,1503.45 4031.24,1499.4 4041.14,1499.4C4048.64,1499.4 4055.14,1501.95 4060.64,1507.05C4060.64,1501.95 4062.54,1499.4 4066.34,1499.4C4070.94,1499.4 4073.24,1502.92 4073.24,1509.98C4073.24,1517.03 4072.24,1526.9 4070.24,1539.6ZM4061.54,1540.95L4060.79,1517.85C4054.79,1512.05 4048.51,1509.15 4041.97,1509.15C4035.41,1509.15 4029.79,1512.1 4025.09,1518C4020.39,1523.9 4018.04,1530.98 4018.04,1539.23C4018.04,1547.48 4019.57,1554.28 4022.62,1559.62C4025.66,1564.98 4029.99,1567.65 4035.59,1567.65C4041.19,1567.65 4046.29,1565.15 4050.89,1560.15C4055.49,1555.15 4059.04,1548.75 4061.54,1540.95Z" style="fill:none;"/>
        </g>
        <g transform="matrix(0.198547,0,0,0.198547,-130.115,-69.1103)">
            <path d="M4108.19,1541.55L4108.64,1569.75C4108.64,1574.85 4106.74,1577.4 4102.94,1577.4C4098.34,1577.4 4096.04,1573.88 4096.04,1566.83C4096.04,1559.78 4097.04,1549.9 4099.04,1537.2C4099.04,1533 4098.61,1527.25 4097.77,1519.95C4096.91,1512.65 4096.49,1508.1 4096.49,1506.3C4096.49,1504.5 4097.02,1502.9 4098.07,1501.5C4099.11,1500.1 4100.54,1499.4 4102.34,1499.4C4104.14,1499.4 4105.57,1500.1 4106.61,1501.5C4107.66,1502.9 4108.19,1504.42 4108.19,1506.08C4108.19,1507.73 4108.16,1509.83 4108.11,1512.38C4108.07,1514.92 4108.04,1517.05 4108.04,1518.75C4110.04,1513.65 4113.16,1509.15 4117.41,1505.25C4121.66,1501.35 4126.04,1499.4 4130.54,1499.4C4135.04,1499.4 4138.52,1500.33 4140.97,1502.17C4143.41,1504.03 4144.64,1506 4144.64,1508.1C4144.64,1510.2 4144.09,1511.85 4142.99,1513.05C4141.89,1514.25 4140.47,1514.85 4138.72,1514.85C4136.97,1514.85 4135.07,1513.92 4133.02,1512.08C4130.97,1510.23 4129.34,1509.3 4128.14,1509.3C4124.84,1509.3 4120.99,1512.85 4116.59,1519.95C4112.19,1527.05 4109.39,1534.25 4108.19,1541.55L4108.19,1541.55Z" style="fill:none;"/>
        </g>
        <g transform="matrix(0.198547,0,0,0.198547,-130.115,-69.1103)">
            <path d="M4169.09,1537.2L4169.54,1569.75C4169.54,1574.85 4167.64,1577.4 4163.84,1577.4C4159.24,1577.4 4156.94,1573.88 4156.94,1566.83C4156.94,1559.78 4157.94,1549.9 4159.94,1537.2C4159.94,1530.4 4159.49,1517.58 4158.59,1498.73C4157.69,1479.88 4157.24,1469.7 4157.24,1468.2C4157.24,1466.7 4157.77,1465.28 4158.82,1463.92C4159.86,1462.58 4161.29,1461.9 4163.09,1461.9C4164.89,1461.9 4166.32,1462.58 4167.36,1463.92C4168.41,1465.28 4168.94,1467.1 4168.94,1469.4L4168.94,1518.45C4176.24,1505.75 4185.24,1499.4 4195.94,1499.4C4201.74,1499.4 4206.39,1501.1 4209.89,1504.5C4213.39,1507.9 4215.14,1512.05 4215.14,1516.95C4215.14,1525.15 4210.89,1532.15 4202.39,1537.95C4200.49,1539.25 4198.04,1540.85 4195.04,1542.75L4206.14,1559.85C4208.04,1562.75 4210.04,1564.65 4212.14,1565.55C4214.24,1566.45 4215.82,1566.9 4216.86,1566.9C4217.91,1566.9 4218.44,1567.35 4218.44,1568.25C4218.44,1570.65 4217.69,1572.78 4216.19,1574.62C4214.69,1576.48 4212.89,1577.4 4210.79,1577.4C4208.69,1577.4 4207.07,1577.08 4205.91,1576.42C4204.77,1575.78 4203.52,1574.53 4202.16,1572.67C4200.82,1570.83 4199.54,1568.9 4198.34,1566.9C4192.54,1557.4 4188.09,1550.45 4184.99,1546.05C4182.39,1546.05 4180.24,1545.33 4178.54,1543.88C4176.84,1542.42 4175.99,1540.7 4175.99,1538.7C4175.99,1536.7 4176.66,1535.05 4178.02,1533.75C4179.36,1532.45 4181.14,1531.8 4183.34,1531.8C4185.54,1531.8 4187.79,1533.05 4190.09,1535.55C4193.89,1533.85 4197.27,1531.25 4200.22,1527.75C4203.16,1524.25 4204.64,1521.1 4204.64,1518.3C4204.64,1515.5 4203.86,1513.3 4202.32,1511.7C4200.77,1510.1 4198.44,1509.3 4195.34,1509.3C4189.74,1509.3 4184.44,1512.12 4179.44,1517.78C4174.44,1523.42 4170.99,1529.9 4169.09,1537.2L4169.09,1537.2Z" style="fill:none;"/>
        </g>
        <g transform="matrix(0.198547,0,0,0.198547,-130.115,-69.1103)">
            <path d="M2945.39,1539.6C2945.39,1547.1 2945.94,1553.23 2947.04,1557.98C2948.14,1562.73 2949.44,1565.4 2950.94,1566C2951.54,1566.3 2952.26,1566.5 2953.12,1566.6C2953.97,1566.7 2954.57,1566.85 2954.91,1567.05C2955.26,1567.25 2955.44,1567.65 2955.44,1568.25C2955.44,1570.95 2954.72,1573.15 2953.26,1574.85C2951.82,1576.55 2949.64,1577.4 2946.74,1577.4C2943.84,1577.4 2941.59,1575.55 2939.99,1571.85C2938.39,1568.15 2937.59,1563.4 2937.59,1557.6C2935.09,1563.2 2931.41,1567.9 2926.57,1571.7C2921.72,1575.5 2916.26,1577.4 2910.22,1577.4C2904.16,1577.4 2898.94,1575.4 2894.54,1571.4C2886.54,1564.1 2882.54,1553.65 2882.54,1540.05C2882.54,1529.15 2885.69,1519.65 2891.99,1511.55C2898.29,1503.45 2906.39,1499.4 2916.29,1499.4C2923.79,1499.4 2930.29,1501.95 2935.79,1507.05C2935.79,1501.95 2937.69,1499.4 2941.49,1499.4C2946.09,1499.4 2948.39,1502.92 2948.39,1509.98C2948.39,1517.03 2947.39,1526.9 2945.39,1539.6ZM2936.69,1540.95L2935.94,1517.85C2929.94,1512.05 2923.66,1509.15 2917.12,1509.15C2910.57,1509.15 2904.94,1512.1 2900.24,1518C2895.54,1523.9 2893.19,1530.98 2893.19,1539.23C2893.19,1547.48 2894.72,1554.28 2897.76,1559.62C2900.82,1564.98 2905.14,1567.65 2910.74,1567.65C2916.34,1567.65 2921.44,1565.15 2926.04,1560.15C2930.64,1555.15 2934.19,1548.75 2936.69,1540.95Z" style="fill:white;fill-rule:nonzero;"/>
        </g>
        <g transform="matrix(0.198547,0,0,0.198547,-130.115,-69.1103)">
            <path d="M3063.59,1560.45C3066.09,1560.45 3067.34,1561.78 3067.34,1564.42C3067.34,1567.08 3064.44,1570.03 3058.64,1573.28C3052.84,1576.53 3046.74,1578.15 3040.34,1578.15C3029.84,1578.15 3021.09,1574.28 3014.09,1566.53C3007.09,1558.78 3003.59,1549.4 3003.59,1538.4C3003.59,1527.4 3007.12,1518.03 3014.16,1510.28C3021.22,1502.53 3030.49,1498.65 3041.99,1498.65C3048.29,1498.65 3053.87,1500.08 3058.72,1502.92C3063.57,1505.78 3065.99,1508.7 3065.99,1511.7C3065.99,1513.3 3065.49,1514.62 3064.49,1515.67C3063.49,1516.73 3062.34,1517.25 3061.04,1517.25C3059.74,1517.25 3058.24,1516.5 3056.54,1515C3051.34,1510.6 3046.04,1508.4 3040.64,1508.4C3033.74,1508.4 3027.72,1511.3 3022.57,1517.1C3017.41,1522.9 3014.84,1529.95 3014.84,1538.25C3014.84,1546.55 3017.44,1553.65 3022.64,1559.55C3027.84,1565.45 3034.29,1568.4 3041.99,1568.4C3047.89,1568.4 3053.64,1566.4 3059.24,1562.4C3061.14,1561.1 3062.59,1560.45 3063.59,1560.45Z" style="fill:white;fill-rule:nonzero;"/>
        </g>
        <g transform="matrix(0.198547,0,0,0.198547,-130.115,-69.1103)">
            <path d="M3147.14,1528.65L3146.39,1552.2C3146.39,1555 3146.41,1557.12 3146.47,1558.58C3146.51,1560.03 3146.82,1561.53 3147.37,1563.08C3147.91,1564.62 3148.59,1565.58 3149.39,1565.92C3150.19,1566.28 3151.01,1566.5 3151.87,1566.6C3152.72,1566.7 3153.32,1566.85 3153.66,1567.05C3154.01,1567.25 3154.19,1567.65 3154.19,1568.25C3154.19,1570.85 3153.37,1573.03 3151.72,1574.78C3150.07,1576.53 3148.14,1577.4 3145.94,1577.4C3142.14,1577.4 3139.51,1575.9 3138.07,1572.9C3136.62,1569.9 3135.89,1565.5 3135.89,1559.7L3136.49,1532.1C3136.49,1525.3 3135.04,1519.8 3132.14,1515.6C3129.24,1511.4 3125.22,1509.3 3120.07,1509.3C3114.91,1509.3 3109.94,1512.15 3105.14,1517.85C3100.34,1523.55 3096.99,1530 3095.09,1537.2L3095.54,1569.75C3095.54,1574.85 3093.64,1577.4 3089.84,1577.4C3085.24,1577.4 3082.94,1573.88 3082.94,1566.83C3082.94,1559.78 3083.94,1549.9 3085.94,1537.2C3085.94,1530.4 3085.49,1517.58 3084.59,1498.73C3083.69,1479.88 3083.24,1469.7 3083.24,1468.2C3083.24,1466.7 3083.76,1465.28 3084.82,1463.92C3085.87,1462.58 3087.29,1461.9 3089.09,1461.9C3090.89,1461.9 3092.32,1462.58 3093.37,1463.92C3094.41,1465.28 3094.94,1467.1 3094.94,1469.4L3094.94,1518.45C3102.24,1505.75 3111.24,1499.4 3121.94,1499.4C3129.94,1499.4 3136.14,1502.25 3140.54,1507.95C3144.94,1513.65 3147.14,1520.55 3147.14,1528.65L3147.14,1528.65Z" style="fill:white;fill-rule:nonzero;"/>
        </g>
        <g transform="matrix(0.198547,0,0,0.198547,-130.115,-69.1103)">
            <path d="M3181.49,1511.7L3180.29,1544.7C3180.29,1551.5 3181.74,1557.03 3184.64,1561.28C3187.54,1565.53 3191.57,1567.65 3196.72,1567.65C3201.87,1567.65 3206.84,1564.78 3211.64,1559.03C3216.44,1553.28 3219.79,1546.8 3221.69,1539.6L3221.24,1507.05C3221.24,1501.95 3223.14,1499.4 3226.94,1499.4C3231.54,1499.4 3233.84,1502.92 3233.84,1509.98C3233.84,1517.03 3232.84,1526.9 3230.84,1539.6C3230.84,1547.1 3231.39,1553.23 3232.49,1557.98C3233.59,1562.73 3234.89,1565.4 3236.39,1566C3236.99,1566.3 3237.72,1566.5 3238.57,1566.6C3239.41,1566.7 3240.01,1566.85 3240.37,1567.05C3240.72,1567.25 3240.89,1567.65 3240.89,1568.25C3240.89,1570.95 3240.07,1573.15 3238.41,1574.85C3236.76,1576.55 3234.69,1577.4 3232.19,1577.4C3225.89,1577.4 3222.74,1571 3222.74,1558.2C3215.34,1571 3206.04,1577.4 3194.84,1577.4C3186.84,1577.4 3180.64,1574.42 3176.24,1568.48C3171.84,1562.53 3169.64,1555.25 3169.64,1546.65L3170.54,1524C3170.54,1520 3170.14,1516.28 3169.34,1512.83C3168.54,1509.38 3168.14,1506.9 3168.14,1505.4C3168.14,1503.9 3168.74,1502.53 3169.94,1501.28C3171.14,1500.03 3172.69,1499.4 3174.59,1499.4C3179.19,1499.4 3181.49,1503.5 3181.49,1511.7L3181.49,1511.7Z" style="fill:white;fill-rule:nonzero;"/>
        </g>
        <g transform="matrix(0.198547,0,0,0.198547,-130.115,-69.1103)">
            <path d="M3268.79,1541.55L3269.24,1569.75C3269.24,1574.85 3267.34,1577.4 3263.54,1577.4C3258.94,1577.4 3256.64,1573.88 3256.64,1566.83C3256.64,1559.78 3257.64,1549.9 3259.64,1537.2C3259.64,1533 3259.22,1527.25 3258.37,1519.95C3257.51,1512.65 3257.09,1508.1 3257.09,1506.3C3257.09,1504.5 3257.62,1502.9 3258.66,1501.5C3259.72,1500.1 3261.14,1499.4 3262.94,1499.4C3264.74,1499.4 3266.16,1500.1 3267.22,1501.5C3268.26,1502.9 3268.79,1504.42 3268.79,1506.08C3268.79,1507.73 3268.76,1509.83 3268.72,1512.38C3268.66,1514.92 3268.64,1517.05 3268.64,1518.75C3270.64,1513.65 3273.76,1509.15 3278.01,1505.25C3282.26,1501.35 3286.64,1499.4 3291.14,1499.4C3295.64,1499.4 3299.12,1500.33 3301.57,1502.17C3304.01,1504.03 3305.24,1506 3305.24,1508.1C3305.24,1510.2 3304.69,1511.85 3303.59,1513.05C3302.49,1514.25 3301.07,1514.85 3299.32,1514.85C3297.57,1514.85 3295.66,1513.92 3293.62,1512.08C3291.57,1510.23 3289.94,1509.3 3288.74,1509.3C3285.44,1509.3 3281.59,1512.85 3277.19,1519.95C3272.79,1527.05 3269.99,1534.25 3268.79,1541.55Z" style="fill:white;fill-rule:nonzero;"/>
        </g>
        <g transform="matrix(0.198547,0,0,0.198547,-130.115,-69.1103)">
            <path d="M3373.19,1560.45C3375.69,1560.45 3376.94,1561.78 3376.94,1564.42C3376.94,1567.08 3374.04,1570.03 3368.24,1573.28C3362.44,1576.53 3356.34,1578.15 3349.94,1578.15C3339.44,1578.15 3330.69,1574.28 3323.69,1566.53C3316.69,1558.78 3313.19,1549.4 3313.19,1538.4C3313.19,1527.4 3316.72,1518.03 3323.76,1510.28C3330.82,1502.53 3340.09,1498.65 3351.59,1498.65C3357.89,1498.65 3363.47,1500.08 3368.32,1502.92C3373.16,1505.78 3375.59,1508.7 3375.59,1511.7C3375.59,1513.3 3375.09,1514.62 3374.09,1515.67C3373.09,1516.73 3371.94,1517.25 3370.64,1517.25C3369.34,1517.25 3367.84,1516.5 3366.14,1515C3360.94,1510.6 3355.64,1508.4 3350.24,1508.4C3343.34,1508.4 3337.32,1511.3 3332.16,1517.1C3327.01,1522.9 3324.44,1529.95 3324.44,1538.25C3324.44,1546.55 3327.04,1553.65 3332.24,1559.55C3337.44,1565.45 3343.89,1568.4 3351.59,1568.4C3357.49,1568.4 3363.24,1566.4 3368.84,1562.4C3370.74,1561.1 3372.19,1560.45 3373.19,1560.45Z" style="fill:white;fill-rule:nonzero;"/>
        </g>
        <g transform="matrix(0.198547,0,0,0.198547,-130.115,-69.1103)">
            <path d="M3456.74,1528.65L3455.99,1552.2C3455.99,1555 3456.01,1557.12 3456.07,1558.58C3456.12,1560.03 3456.41,1561.53 3456.97,1563.08C3457.51,1564.62 3458.19,1565.58 3458.99,1565.92C3459.79,1566.28 3460.62,1566.5 3461.47,1566.6C3462.32,1566.7 3462.91,1566.85 3463.26,1567.05C3463.62,1567.25 3463.79,1567.65 3463.79,1568.25C3463.79,1570.85 3462.97,1573.03 3461.32,1574.78C3459.66,1576.53 3457.74,1577.4 3455.54,1577.4C3451.74,1577.4 3449.12,1575.9 3447.66,1572.9C3446.22,1569.9 3445.49,1565.5 3445.49,1559.7L3446.09,1532.1C3446.09,1525.3 3444.64,1519.8 3441.74,1515.6C3438.84,1511.4 3434.82,1509.3 3429.66,1509.3C3424.51,1509.3 3419.54,1512.15 3414.74,1517.85C3409.94,1523.55 3406.59,1530 3404.69,1537.2L3405.14,1569.75C3405.14,1574.85 3403.24,1577.4 3399.44,1577.4C3394.84,1577.4 3392.54,1573.88 3392.54,1566.83C3392.54,1559.78 3393.54,1549.9 3395.54,1537.2C3395.54,1530.4 3395.09,1517.58 3394.19,1498.73C3393.29,1479.88 3392.84,1469.7 3392.84,1468.2C3392.84,1466.7 3393.37,1465.28 3394.41,1463.92C3395.47,1462.58 3396.89,1461.9 3398.69,1461.9C3400.49,1461.9 3401.91,1462.58 3402.97,1463.92C3404.01,1465.28 3404.54,1467.1 3404.54,1469.4L3404.54,1518.45C3411.84,1505.75 3420.84,1499.4 3431.54,1499.4C3439.54,1499.4 3445.74,1502.25 3450.14,1507.95C3454.54,1513.65 3456.74,1520.55 3456.74,1528.65L3456.74,1528.65Z" style="fill:white;fill-rule:nonzero;"/>
        </g>
        <g transform="matrix(0.198547,0,0,0.198547,-130.115,-69.1103)">
            <path d="M3527.09,1469.17C3528.09,1470.52 3528.59,1472.22 3528.59,1474.27C3528.59,1476.32 3527.89,1478.37 3526.49,1480.42C3525.09,1482.47 3523.34,1483.5 3521.24,1483.5C3519.14,1483.5 3517.57,1482.8 3516.51,1481.39C3515.47,1480 3514.94,1478.14 3514.94,1475.85C3514.94,1473.55 3515.66,1471.52 3517.12,1469.77C3518.57,1468.02 3520.34,1467.14 3522.44,1467.14C3524.54,1467.14 3526.09,1467.82 3527.09,1469.17L3527.09,1469.17ZM3526.64,1538.39L3527.39,1569.89C3527.39,1574.89 3525.49,1577.39 3521.69,1577.39C3517.89,1577.39 3515.99,1574.89 3515.99,1569.89L3516.74,1538.39L3515.99,1506.89C3515.99,1501.89 3517.89,1499.39 3521.69,1499.39C3525.49,1499.39 3527.39,1501.89 3527.39,1506.89L3526.64,1538.39Z" style="fill:white;fill-rule:nonzero;"/>
        </g>
        <g transform="matrix(0.198547,0,0,0.198547,-130.115,-69.1103)">
            <path d="M3612.89,1528.65L3612.14,1552.2C3612.14,1555 3612.16,1557.12 3612.22,1558.58C3612.26,1560.03 3612.57,1561.53 3613.12,1563.08C3613.66,1564.62 3614.34,1565.58 3615.14,1565.92C3615.94,1566.28 3616.76,1566.5 3617.62,1566.6C3618.47,1566.7 3619.07,1566.85 3619.41,1567.05C3619.76,1567.25 3619.94,1567.65 3619.94,1568.25C3619.94,1570.85 3619.12,1573.03 3617.47,1574.78C3615.82,1576.53 3613.89,1577.4 3611.69,1577.4C3607.89,1577.4 3605.26,1575.9 3603.82,1572.9C3602.37,1569.9 3601.64,1565.5 3601.64,1559.7L3602.24,1532.1C3602.24,1525.3 3600.79,1519.8 3597.89,1515.6C3594.99,1511.4 3590.97,1509.3 3585.82,1509.3C3580.66,1509.3 3575.69,1512.15 3570.89,1517.85C3566.09,1523.55 3562.74,1530 3560.84,1537.2L3561.29,1569.75C3561.29,1574.85 3559.39,1577.4 3555.59,1577.4C3550.99,1577.4 3548.69,1573.88 3548.69,1566.83C3548.69,1559.78 3549.69,1549.9 3551.69,1537.2C3551.69,1533 3551.26,1527.2 3550.41,1519.8C3549.57,1512.4 3549.14,1507.83 3549.14,1506.08C3549.14,1504.33 3549.66,1502.78 3550.72,1501.42C3551.76,1500.08 3553.19,1499.4 3554.99,1499.4C3556.79,1499.4 3558.22,1500.08 3559.26,1501.42C3560.32,1502.78 3560.84,1504.3 3560.84,1506C3560.84,1507.7 3560.82,1509.78 3560.76,1512.23C3560.72,1514.67 3560.69,1516.75 3560.69,1518.45C3567.99,1505.75 3576.99,1499.4 3587.69,1499.4C3595.69,1499.4 3601.89,1502.25 3606.29,1507.95C3610.69,1513.65 3612.89,1520.55 3612.89,1528.65L3612.89,1528.65Z" style="fill:white;fill-rule:nonzero;"/>
        </g>
        <g transform="matrix(0.198547,0,0,0.198547,-130.115,-69.1103)">
            <path d="M3688.49,1510.05L3688.19,1545.6C3688.19,1554.7 3688.57,1560.65 3689.32,1563.45C3690.07,1566.25 3692.04,1567.65 3695.24,1567.65C3696.74,1567.65 3698.57,1567.12 3700.72,1566.08C3702.87,1565.03 3704.29,1564.5 3704.99,1564.5C3707.09,1564.5 3708.14,1565.53 3708.14,1567.58C3708.14,1569.62 3706.29,1571.78 3702.59,1574.03C3698.89,1576.28 3695.24,1577.4 3691.64,1577.4C3682.94,1577.4 3678.59,1571 3678.59,1558.2L3678.44,1510.05C3675.14,1510.35 3672.84,1510.5 3671.54,1510.5C3666.54,1510.5 3664.04,1508.85 3664.04,1505.55C3664.04,1502.25 3666.54,1500.6 3671.54,1500.6C3671.94,1500.6 3674.14,1500.7 3678.14,1500.9L3677.84,1484.1C3677.84,1479.1 3679.74,1476.6 3683.54,1476.6C3687.34,1476.6 3689.24,1479.1 3689.24,1484.1L3688.79,1501.05L3700.94,1500.45C3705.94,1500.45 3708.44,1502.15 3708.44,1505.55C3708.44,1508.75 3705.94,1510.35 3700.94,1510.35C3700.04,1510.35 3695.89,1510.25 3688.49,1510.05L3688.49,1510.05Z" style="fill:white;fill-rule:nonzero;"/>
        </g>
        <g transform="matrix(0.198547,0,0,0.198547,-130.115,-69.1103)">
            <path d="M3785.69,1528.65L3784.94,1552.2C3784.94,1555 3784.97,1557.12 3785.01,1558.58C3785.07,1560.03 3785.37,1561.53 3785.91,1563.08C3786.47,1564.62 3787.14,1565.58 3787.94,1565.92C3788.74,1566.28 3789.57,1566.5 3790.41,1566.6C3791.26,1566.7 3791.87,1566.85 3792.22,1567.05C3792.57,1567.25 3792.74,1567.65 3792.74,1568.25C3792.74,1570.85 3791.91,1573.03 3790.26,1574.78C3788.62,1576.53 3786.69,1577.4 3784.49,1577.4C3780.69,1577.4 3778.07,1575.9 3776.62,1572.9C3775.16,1569.9 3774.44,1565.5 3774.44,1559.7L3775.04,1532.1C3775.04,1525.3 3773.59,1519.8 3770.69,1515.6C3767.79,1511.4 3763.76,1509.3 3758.62,1509.3C3753.47,1509.3 3748.49,1512.15 3743.69,1517.85C3738.89,1523.55 3735.54,1530 3733.64,1537.2L3734.09,1569.75C3734.09,1574.85 3732.19,1577.4 3728.39,1577.4C3723.79,1577.4 3721.49,1573.88 3721.49,1566.83C3721.49,1559.78 3722.49,1549.9 3724.49,1537.2C3724.49,1530.4 3724.04,1517.58 3723.14,1498.73C3722.24,1479.88 3721.79,1469.7 3721.79,1468.2C3721.79,1466.7 3722.32,1465.28 3723.37,1463.92C3724.41,1462.58 3725.84,1461.9 3727.64,1461.9C3729.44,1461.9 3730.87,1462.58 3731.91,1463.92C3732.97,1465.28 3733.49,1467.1 3733.49,1469.4L3733.49,1518.45C3740.79,1505.75 3749.79,1499.4 3760.49,1499.4C3768.49,1499.4 3774.69,1502.25 3779.09,1507.95C3783.49,1513.65 3785.69,1520.55 3785.69,1528.65L3785.69,1528.65Z" style="fill:white;fill-rule:nonzero;"/>
        </g>
        <g transform="matrix(0.198547,0,0,0.198547,-130.115,-69.1103)">
            <path d="M3854.92,1532.1C3858.97,1529.8 3860.99,1526.7 3860.99,1522.8C3860.99,1518.9 3859.67,1515.53 3857.02,1512.67C3854.37,1509.83 3850.6,1508.4 3845.7,1508.4C3839.1,1508.4 3833.55,1510.88 3829.05,1515.83C3824.55,1520.78 3821.64,1526.55 3820.35,1533.15C3825.85,1534.75 3831.97,1535.55 3838.72,1535.55C3845.47,1535.55 3850.87,1534.4 3854.92,1532.1ZM3864.07,1505.4C3869.12,1509.9 3871.64,1515.75 3871.64,1522.95C3871.64,1530.15 3868.52,1535.62 3862.27,1539.38C3856.02,1543.12 3848.35,1545 3839.24,1545C3834.05,1545 3827.7,1544.25 3820.2,1542.75C3820.8,1549.75 3823.42,1555.78 3828.07,1560.83C3832.72,1565.88 3837.89,1568.4 3843.6,1568.4C3846.99,1568.4 3850.14,1567.92 3853.05,1566.98C3855.95,1566.03 3858.14,1565 3859.64,1563.9C3863.64,1560.8 3866.27,1559.25 3867.52,1559.25C3868.77,1559.25 3869.77,1559.62 3870.52,1560.38C3871.27,1561.12 3871.64,1562.05 3871.64,1563.15C3871.64,1565.95 3868.77,1569.15 3863.02,1572.75C3857.27,1576.35 3851.05,1578.15 3844.35,1578.15C3833.95,1578.15 3825.7,1574.5 3819.6,1567.2C3813.49,1559.9 3810.2,1551.1 3809.7,1540.8C3804.39,1539.2 3801.74,1536.6 3801.74,1533C3801.74,1531.5 3802.17,1530.33 3803.02,1529.48C3803.87,1528.62 3804.89,1528.2 3806.1,1528.2C3807.3,1528.2 3808.8,1528.65 3810.6,1529.55C3812.8,1520.55 3816.97,1513.15 3823.12,1507.35C3829.27,1501.55 3836.37,1498.65 3844.42,1498.65C3852.47,1498.65 3859.02,1500.9 3864.07,1505.4L3864.07,1505.4Z" style="fill:white;fill-rule:nonzero;"/>
        </g>
        <g transform="matrix(0.198547,0,0,0.198547,-130.115,-69.1103)">
            <path d="M3974.77,1558.8C3979.62,1552.9 3982.05,1545.98 3982.05,1538.03C3982.05,1530.08 3980.3,1523.28 3976.8,1517.62C3973.3,1511.98 3968.55,1509.15 3962.55,1509.15C3952.05,1509.15 3943.39,1517.8 3936.6,1535.1L3936.6,1558.95C3942.6,1564.75 3949.7,1567.65 3957.89,1567.65C3964.3,1567.65 3969.92,1564.7 3974.77,1558.8L3974.77,1558.8ZM3927.3,1547.4L3927.45,1541.7L3927.45,1539.3C3927.45,1535.1 3926.99,1528.95 3926.1,1520.85C3925.2,1512.75 3924.74,1507.83 3924.74,1506.08C3924.74,1504.33 3925.27,1502.78 3926.32,1501.42C3927.37,1500.08 3928.8,1499.4 3930.6,1499.4C3932.39,1499.4 3933.82,1500.08 3934.87,1501.42C3935.92,1502.78 3936.45,1504.3 3936.45,1506C3936.45,1507.7 3936.42,1509.83 3936.37,1512.38C3936.32,1514.92 3936.3,1517.05 3936.3,1518.75C3939.6,1512.65 3943.3,1507.9 3947.39,1504.5C3951.49,1501.1 3956.8,1499.4 3963.3,1499.4C3969.8,1499.4 3975.39,1501.5 3980.1,1505.7C3984.8,1509.9 3988.14,1514.75 3990.14,1520.25C3992.14,1525.75 3993.14,1531.25 3993.14,1536.75C3993.14,1547.65 3989.85,1557.15 3983.24,1565.25C3976.64,1573.35 3968.2,1577.4 3957.89,1577.4C3950.39,1577.4 3943.3,1574.95 3936.6,1570.05C3936.39,1582.15 3936.3,1591.12 3936.3,1596.98C3936.3,1602.83 3935.8,1606.53 3934.8,1608.08C3933.8,1609.62 3932.24,1610.4 3930.14,1610.4C3928.05,1610.4 3926.32,1609.53 3924.97,1607.78C3923.62,1606.03 3922.95,1603.5 3922.95,1600.2C3922.95,1596.9 3923.14,1592.98 3923.55,1588.42C3923.95,1583.88 3924.55,1577.88 3925.35,1570.42C3926.14,1562.98 3926.8,1556.25 3927.3,1550.25L3927.3,1547.4L3927.3,1547.4Z" style="fill:white;fill-rule:nonzero;"/>
        </g>
        <g transform="matrix(0.198547,0,0,0.198547,-130.115,-69.1103)">
            <path d="M4070.24,1539.6C4070.24,1547.1 4070.79,1553.23 4071.89,1557.98C4072.99,1562.73 4074.29,1565.4 4075.79,1566C4076.39,1566.3 4077.12,1566.5 4077.97,1566.6C4078.82,1566.7 4079.41,1566.85 4079.76,1567.05C4080.12,1567.25 4080.29,1567.65 4080.29,1568.25C4080.29,1570.95 4079.57,1573.15 4078.12,1574.85C4076.66,1576.55 4074.49,1577.4 4071.59,1577.4C4068.69,1577.4 4066.44,1575.55 4064.84,1571.85C4063.24,1568.15 4062.44,1563.4 4062.44,1557.6C4059.94,1563.2 4056.26,1567.9 4051.41,1571.7C4046.57,1575.5 4041.12,1577.4 4035.07,1577.4C4029.01,1577.4 4023.79,1575.4 4019.39,1571.4C4011.39,1564.1 4007.39,1553.65 4007.39,1540.05C4007.39,1529.15 4010.54,1519.65 4016.84,1511.55C4023.14,1503.45 4031.24,1499.4 4041.14,1499.4C4048.64,1499.4 4055.14,1501.95 4060.64,1507.05C4060.64,1501.95 4062.54,1499.4 4066.34,1499.4C4070.94,1499.4 4073.24,1502.92 4073.24,1509.98C4073.24,1517.03 4072.24,1526.9 4070.24,1539.6ZM4061.54,1540.95L4060.79,1517.85C4054.79,1512.05 4048.51,1509.15 4041.97,1509.15C4035.41,1509.15 4029.79,1512.1 4025.09,1518C4020.39,1523.9 4018.04,1530.98 4018.04,1539.23C4018.04,1547.48 4019.57,1554.28 4022.62,1559.62C4025.66,1564.98 4029.99,1567.65 4035.59,1567.65C4041.19,1567.65 4046.29,1565.15 4050.89,1560.15C4055.49,1555.15 4059.04,1548.75 4061.54,1540.95Z" style="fill:white;fill-rule:nonzero;"/>
        </g>
        <g transform="matrix(0.198547,0,0,0.198547,-130.115,-69.1103)">
            <path d="M4108.19,1541.55L4108.64,1569.75C4108.64,1574.85 4106.74,1577.4 4102.94,1577.4C4098.34,1577.4 4096.04,1573.88 4096.04,1566.83C4096.04,1559.78 4097.04,1549.9 4099.04,1537.2C4099.04,1533 4098.61,1527.25 4097.77,1519.95C4096.91,1512.65 4096.49,1508.1 4096.49,1506.3C4096.49,1504.5 4097.02,1502.9 4098.07,1501.5C4099.11,1500.1 4100.54,1499.4 4102.34,1499.4C4104.14,1499.4 4105.57,1500.1 4106.61,1501.5C4107.66,1502.9 4108.19,1504.42 4108.19,1506.08C4108.19,1507.73 4108.16,1509.83 4108.11,1512.38C4108.07,1514.92 4108.04,1517.05 4108.04,1518.75C4110.04,1513.65 4113.16,1509.15 4117.41,1505.25C4121.66,1501.35 4126.04,1499.4 4130.54,1499.4C4135.04,1499.4 4138.52,1500.33 4140.97,1502.17C4143.41,1504.03 4144.64,1506 4144.64,1508.1C4144.64,1510.2 4144.09,1511.85 4142.99,1513.05C4141.89,1514.25 4140.47,1514.85 4138.72,1514.85C4136.97,1514.85 4135.07,1513.92 4133.02,1512.08C4130.97,1510.23 4129.34,1509.3 4128.14,1509.3C4124.84,1509.3 4120.99,1512.85 4116.59,1519.95C4112.19,1527.05 4109.39,1534.25 4108.19,1541.55L4108.19,1541.55Z" style="fill:white;fill-rule:nonzero;"/>
        </g>
        <g transform="matrix(0.198547,0,0,0.198547,-130.115,-69.1103)">
            <path d="M4169.09,1537.2L4169.54,1569.75C4169.54,1574.85 4167.64,1577.4 4163.84,1577.4C4159.24,1577.4 4156.94,1573.88 4156.94,1566.83C4156.94,1559.78 4157.94,1549.9 4159.94,1537.2C4159.94,1530.4 4159.49,1517.58 4158.59,1498.73C4157.69,1479.88 4157.24,1469.7 4157.24,1468.2C4157.24,1466.7 4157.77,1465.28 4158.82,1463.92C4159.86,1462.58 4161.29,1461.9 4163.09,1461.9C4164.89,1461.9 4166.32,1462.58 4167.36,1463.92C4168.41,1465.28 4168.94,1467.1 4168.94,1469.4L4168.94,1518.45C4176.24,1505.75 4185.24,1499.4 4195.94,1499.4C4201.74,1499.4 4206.39,1501.1 4209.89,1504.5C4213.39,1507.9 4215.14,1512.05 4215.14,1516.95C4215.14,1525.15 4210.89,1532.15 4202.39,1537.95C4200.49,1539.25 4198.04,1540.85 4195.04,1542.75L4206.14,1559.85C4208.04,1562.75 4210.04,1564.65 4212.14,1565.55C4214.24,1566.45 4215.82,1566.9 4216.86,1566.9C4217.91,1566.9 4218.44,1567.35 4218.44,1568.25C4218.44,1570.65 4217.69,1572.78 4216.19,1574.62C4214.69,1576.48 4212.89,1577.4 4210.79,1577.4C4208.69,1577.4 4207.07,1577.08 4205.91,1576.42C4204.77,1575.78 4203.52,1574.53 4202.16,1572.67C4200.82,1570.83 4199.54,1568.9 4198.34,1566.9C4192.54,1557.4 4188.09,1550.45 4184.99,1546.05C4182.39,1546.05 4180.24,1545.33 4178.54,1543.88C4176.84,1542.42 4175.99,1540.7 4175.99,1538.7C4175.99,1536.7 4176.66,1535.05 4178.02,1533.75C4179.36,1532.45 4181.14,1531.8 4183.34,1531.8C4185.54,1531.8 4187.79,1533.05 4190.09,1535.55C4193.89,1533.85 4197.27,1531.25 4200.22,1527.75C4203.16,1524.25 4204.64,1521.1 4204.64,1518.3C4204.64,1515.5 4203.86,1513.3 4202.32,1511.7C4200.77,1510.1 4198.44,1509.3 4195.34,1509.3C4189.74,1509.3 4184.44,1512.12 4179.44,1517.78C4174.44,1523.42 4170.99,1529.9 4169.09,1537.2L4169.09,1537.2Z" style="fill:white;fill-rule:nonzero;"/>
        </g>
        <path d="M406.081,146.694L408.532,146.639C409.349,146.639 410.018,146.843 410.538,147.251C411.058,147.66 411.318,148.18 411.318,148.811C411.318,150.222 410.018,150.928 407.418,150.928C408.012,152.748 408.449,154.085 408.727,154.939C409.006,155.793 409.386,156.87 409.869,158.17C410.835,160.844 411.318,162.441 411.318,162.961C411.318,163.481 411.15,163.945 410.816,164.354C410.482,164.762 410.018,164.967 409.424,164.967C408.347,164.967 407.529,164.317 406.972,163.017C406.452,161.605 405.812,159.637 405.05,157.112C404.289,154.586 403.63,152.451 403.073,150.705C398.616,150.594 395.515,150.538 393.77,150.538C392.024,150.538 389.944,150.594 387.53,150.705C385.228,158.43 384.002,162.497 383.854,162.905C383.334,164.279 382.609,164.967 381.681,164.967C381.124,164.967 380.678,164.781 380.344,164.409C380.01,164.038 379.843,163.583 379.843,163.045C379.843,162.506 380.01,161.67 380.344,160.538C380.678,159.405 381.189,157.836 381.876,155.83C382.563,153.825 383.111,152.154 383.519,150.817L382.517,150.817C380.734,150.817 379.843,150.13 379.843,148.755C379.843,147.381 380.734,146.694 382.517,146.694C383.371,146.694 384.132,146.713 384.801,146.75C384.912,146.453 387.345,139.341 392.098,125.414C392.878,123.185 393.955,122.071 395.329,122.071C396.258,122.071 396.973,122.341 397.474,122.879C397.976,123.418 398.393,124.105 398.728,124.94C399.062,125.776 399.619,127.382 400.399,129.759C402.85,137.224 404.744,142.869 406.081,146.694L406.081,146.694ZM388.756,146.861C390.836,146.973 393.055,147.029 395.413,147.029C397.771,147.029 399.916,146.973 401.847,146.861C398.022,134.568 395.886,128.422 395.441,128.422C394.921,128.422 393.194,133.027 390.26,142.238L388.756,146.861Z" style="fill:white;fill-rule:nonzero;"/>
        <path d="M421.846,140.566L421.401,152.822C421.401,155.348 421.939,157.4 423.016,158.978C424.093,160.556 425.588,161.346 427.501,161.346C429.413,161.346 431.261,160.278 433.044,158.142C434.826,156.007 436.071,153.602 436.776,150.928L436.609,138.839C436.609,136.945 437.315,135.998 438.726,135.998C440.434,135.998 441.289,137.307 441.289,139.926C441.289,142.544 440.917,146.211 440.174,150.928C440.174,153.713 440.379,155.988 440.787,157.752C441.196,159.516 441.679,160.51 442.236,160.733C442.458,160.844 442.728,160.918 443.043,160.956C443.359,160.993 443.582,161.048 443.712,161.123C443.842,161.197 443.907,161.346 443.907,161.568C443.907,162.571 443.6,163.388 442.988,164.019C442.375,164.651 441.604,164.967 440.676,164.967C438.336,164.967 437.166,162.59 437.166,157.836C434.418,162.59 430.964,164.967 426.804,164.967C423.833,164.967 421.531,163.862 419.897,161.652C418.263,159.442 417.446,156.74 417.446,153.546L417.78,145.134C417.78,143.649 417.631,142.265 417.334,140.984C417.037,139.703 416.888,138.784 416.888,138.227C416.888,137.67 417.111,137.159 417.557,136.695C418.003,136.23 418.578,135.998 419.284,135.998C420.992,135.998 421.846,137.521 421.846,140.566Z" style="fill:white;fill-rule:nonzero;"/>
        <path d="M469.365,151.708L469.365,142.85C467.137,140.696 464.5,139.619 461.455,139.619C459.078,139.619 456.989,140.715 455.188,142.906C453.387,145.097 452.486,147.669 452.486,150.622C452.486,153.574 453.136,156.1 454.436,158.198C455.736,160.296 457.5,161.346 459.728,161.346C463.628,161.346 466.84,158.133 469.365,151.708L469.365,151.708ZM475.271,160.844C476.236,160.844 476.719,161.123 476.719,161.68C476.719,162.385 476.468,163.11 475.967,163.852C475.466,164.595 474.676,164.967 473.599,164.967C472.522,164.967 471.677,164.372 471.065,163.184C470.452,161.995 470.015,160.101 469.755,157.502C467.044,162.478 463.609,164.967 459.449,164.967C457.035,164.967 454.956,164.187 453.21,162.627C451.465,161.067 450.22,159.266 449.478,157.223C448.735,155.18 448.364,153.138 448.364,151.095C448.364,147.047 449.589,143.519 452.04,140.511C454.491,137.502 457.63,135.998 461.455,135.998C464.24,135.998 466.877,136.908 469.365,138.728C469.44,133.566 469.477,129.787 469.477,127.391C469.477,124.996 469.653,123.51 470.006,122.935C470.359,122.359 470.935,122.071 471.733,122.071C472.532,122.071 473.182,122.396 473.683,123.046C474.184,123.696 474.435,124.652 474.435,125.915C474.435,127.178 474.361,128.728 474.212,130.567C474.064,132.405 473.841,134.838 473.544,137.865C473.246,140.891 473.005,143.63 472.819,146.081C472.819,150.612 472.987,154.159 473.321,156.722C473.655,159.284 474.305,160.658 475.271,160.844Z" style="fill:white;fill-rule:nonzero;"/>
        <path d="M486.914,140.566L486.468,152.822C486.468,155.348 487.006,157.4 488.083,158.978C489.16,160.556 490.655,161.346 492.568,161.346C494.481,161.346 496.328,160.278 498.111,158.142C499.894,156.007 501.138,153.602 501.843,150.928L501.676,138.839C501.676,136.945 502.382,135.998 503.793,135.998C505.502,135.998 506.356,137.307 506.356,139.926C506.356,142.544 505.984,146.211 505.242,150.928C505.242,153.713 505.446,155.988 505.854,157.752C506.263,159.516 506.746,160.51 507.303,160.733C507.526,160.844 507.795,160.918 508.111,160.956C508.426,160.993 508.649,161.048 508.779,161.123C508.909,161.197 508.974,161.346 508.974,161.568C508.974,162.571 508.668,163.388 508.055,164.019C507.442,164.651 506.671,164.967 505.743,164.967C503.403,164.967 502.233,162.59 502.233,157.836C499.485,162.59 496.031,164.967 491.872,164.967C488.9,164.967 486.598,163.862 484.964,161.652C483.33,159.442 482.513,156.74 482.513,153.546L482.847,145.134C482.847,143.649 482.698,142.265 482.401,140.984C482.104,139.703 481.956,138.784 481.956,138.227C481.956,137.67 482.178,137.159 482.624,136.695C483.07,136.23 483.645,135.998 484.351,135.998C486.059,135.998 486.914,137.521 486.914,140.566L486.914,140.566Z" style="fill:white;fill-rule:nonzero;"/>
        <path d="M539.168,149.87C539.168,153.918 537.998,157.446 535.658,160.454C533.318,163.462 530.31,164.967 526.633,164.967C523.848,164.967 521.434,164.019 519.391,162.125C519.391,164.019 518.686,164.967 517.274,164.967C515.566,164.967 514.712,163.657 514.712,161.039C514.712,158.421 515.083,154.753 515.826,150.037C515.826,147.511 515.659,142.748 515.325,135.748C514.99,128.747 514.823,124.968 514.823,124.411C514.823,123.854 515.018,123.325 515.408,122.823C515.798,122.322 516.327,122.071 516.996,122.071C517.664,122.071 518.194,122.322 518.584,122.823C518.974,123.325 519.169,124.002 519.169,124.857L519.169,142.46C520.171,140.566 521.518,139.016 523.207,137.809C524.897,136.602 526.828,135.998 529.001,135.998C531.174,135.998 533.058,136.741 534.655,138.227C537.664,140.938 539.168,144.819 539.168,149.87L539.168,149.87ZM532.594,158.059C534.34,155.868 535.213,153.24 535.213,150.176C535.213,147.112 534.646,144.587 533.513,142.6C532.381,140.613 530.774,139.619 528.695,139.619C526.615,139.619 524.721,140.548 523.012,142.405C521.304,144.262 519.986,146.639 519.057,149.535L519.336,158.114C521.564,160.268 523.894,161.346 526.327,161.346C528.76,161.346 530.849,160.25 532.594,158.059Z" style="fill:white;fill-rule:nonzero;"/>
        <path d="M566.576,150.427C566.576,147.344 565.713,144.726 563.986,142.572C562.259,140.418 560.114,139.341 557.551,139.341C554.989,139.341 552.807,140.436 551.006,142.628C549.205,144.819 548.304,147.456 548.304,150.538C548.304,153.621 549.167,156.239 550.894,158.393C552.621,160.547 554.766,161.624 557.329,161.624C559.891,161.624 562.073,160.528 563.874,158.337C565.676,156.146 566.576,153.509 566.576,150.427ZM566.855,139.981C569.306,142.823 570.531,146.304 570.531,150.427C570.531,154.549 569.287,158.049 566.799,160.928C564.311,163.806 561.173,165.245 557.384,165.245C553.596,165.245 550.477,163.825 548.025,160.983C545.574,158.142 544.349,154.661 544.349,150.538C544.349,146.416 545.584,142.915 548.053,140.037C550.523,137.159 553.661,135.72 557.468,135.72C561.275,135.72 564.404,137.14 566.855,139.981Z" style="fill:white;fill-rule:nonzero;"/>
        <path d="M600.725,146.861L600.447,155.608C600.447,156.647 600.456,157.437 600.475,157.975C600.493,158.514 600.605,159.071 600.809,159.646C601.013,160.222 601.264,160.575 601.561,160.705C601.858,160.835 602.164,160.918 602.48,160.956C602.796,160.993 603.019,161.048 603.149,161.123C603.279,161.197 603.344,161.346 603.344,161.568C603.344,162.534 603.037,163.342 602.424,163.992C601.812,164.642 601.097,164.967 600.28,164.967C598.868,164.967 597.893,164.409 597.355,163.295C596.816,162.181 596.547,160.547 596.547,158.393L596.77,148.143C596.77,145.617 596.231,143.575 595.154,142.015C594.077,140.455 592.583,139.675 590.67,139.675C588.757,139.675 586.91,140.733 585.127,142.85C583.344,144.967 582.1,147.363 581.395,150.037L581.562,162.125C581.562,164.019 580.856,164.967 579.445,164.967C577.736,164.967 576.882,163.657 576.882,161.039C576.882,158.421 577.254,154.753 577.996,150.037C577.996,148.477 577.839,146.323 577.523,143.575C577.207,140.826 577.049,139.127 577.049,138.477C577.049,137.827 577.244,137.252 577.634,136.75C578.024,136.249 578.553,135.998 579.222,135.998C579.89,135.998 580.42,136.249 580.81,136.75C581.2,137.252 581.395,137.818 581.395,138.449C581.395,139.081 581.385,139.851 581.367,140.761C581.348,141.671 581.339,142.442 581.339,143.073C584.05,138.357 587.392,135.998 591.366,135.998C594.337,135.998 596.64,137.057 598.274,139.174C599.908,141.291 600.725,143.853 600.725,146.861L600.725,146.861Z" style="fill:white;fill-rule:nonzero;"/>
        <path d="M624.735,159.786L624.903,143.909C624.903,141.829 624.884,138.849 624.847,134.968C624.81,131.087 624.791,128.905 624.791,128.422C624.346,128.496 624.048,128.533 623.9,128.533C622.786,128.533 622.229,127.921 622.229,126.695C622.229,125.878 622.711,125.126 623.677,124.439C624.643,123.752 625.813,123.223 627.187,122.851C630.046,122.146 632.618,121.793 634.902,121.793C637.186,121.793 639.322,122.127 641.309,122.795C643.296,123.464 644.865,124.318 646.016,125.358C648.244,127.438 649.358,129.666 649.358,132.043C649.358,136.351 647.353,139.564 643.342,141.681C645.979,142.423 648.151,143.844 649.86,145.942C651.568,148.041 652.422,150.371 652.422,152.934C652.422,156.87 650.807,159.906 647.576,162.042C644.345,164.177 640.037,165.245 634.652,165.245C630.901,165.245 627.809,164.846 625.376,164.047C622.944,163.249 621.727,162.218 621.727,160.956C621.727,160.51 621.867,160.138 622.145,159.841C622.424,159.544 622.804,159.396 623.287,159.396C623.77,159.396 624.253,159.526 624.735,159.786L624.735,159.786ZM634.484,161.513C638.607,161.513 641.894,160.742 644.345,159.201C646.796,157.659 648.021,155.459 648.021,152.599C648.021,150.26 647.047,148.338 645.097,146.834C643.147,145.329 641.058,144.392 638.83,144.02C635.599,144.577 633.398,144.856 632.228,144.856C631.058,144.856 629.953,144.726 628.914,144.466C628.914,152.636 628.988,158.152 629.136,161.011C630.882,161.346 632.665,161.513 634.484,161.513L634.484,161.513ZM634.484,125.581C632.85,125.581 631.049,125.841 629.081,126.361C628.969,128.329 628.914,132.99 628.914,140.344C629.619,139.972 630.891,139.786 632.73,139.786C634.568,139.786 636.267,139.935 637.827,140.232C638.607,140.195 639.545,139.907 640.64,139.369C641.736,138.83 642.785,137.911 643.788,136.611C644.79,135.311 645.292,133.816 645.292,132.127C645.292,130.437 644.41,128.923 642.646,127.586C640.882,126.249 638.161,125.581 634.484,125.581L634.484,125.581Z" style="fill:white;fill-rule:nonzero;"/>
        <path d="M681.112,150.928C681.112,153.713 681.316,155.988 681.725,157.752C682.133,159.516 682.616,160.51 683.173,160.733C683.396,160.844 683.665,160.918 683.981,160.956C684.297,160.993 684.52,161.048 684.65,161.123C684.78,161.197 684.845,161.346 684.845,161.568C684.845,162.571 684.575,163.388 684.037,164.019C683.498,164.651 682.691,164.967 681.613,164.967C680.536,164.967 679.701,164.279 679.107,162.905C678.512,161.531 678.215,159.767 678.215,157.613C677.287,159.693 675.922,161.438 674.121,162.85C672.32,164.261 670.295,164.967 668.049,164.967C665.802,164.967 663.861,164.224 662.227,162.738C659.256,160.027 657.77,156.146 657.77,151.095C657.77,147.047 658.94,143.519 661.28,140.511C663.62,137.502 666.628,135.998 670.305,135.998C673.09,135.998 675.504,136.945 677.547,138.839C677.547,136.945 678.252,135.998 679.664,135.998C681.372,135.998 682.226,137.307 682.226,139.926C682.226,142.544 681.855,146.211 681.112,150.928L681.112,150.928ZM677.881,151.429L677.603,142.85C675.374,140.696 673.044,139.619 670.611,139.619C668.179,139.619 666.089,140.715 664.344,142.906C662.598,145.097 661.726,147.725 661.726,150.789C661.726,153.853 662.292,156.378 663.425,158.365C664.558,160.352 666.164,161.346 668.244,161.346C670.323,161.346 672.217,160.417 673.926,158.56C675.634,156.703 676.953,154.326 677.881,151.429L677.881,151.429Z" style="fill:white;fill-rule:nonzero;"/>
        <path d="M709.217,158.059C711.018,155.868 711.919,153.296 711.919,150.343C711.919,147.391 711.269,144.865 709.969,142.767C708.669,140.668 706.905,139.619 704.677,139.619C700.777,139.619 697.565,142.832 695.039,149.257L695.039,158.114C697.267,160.268 699.904,161.346 702.95,161.346C705.327,161.346 707.416,160.25 709.217,158.059L709.217,158.059ZM691.585,153.825L691.641,151.708L691.641,150.817C691.641,149.257 691.474,146.973 691.14,143.965C690.805,140.956 690.638,139.127 690.638,138.477C690.638,137.827 690.833,137.252 691.223,136.75C691.613,136.249 692.142,135.998 692.811,135.998C693.479,135.998 694.009,136.249 694.399,136.75C694.788,137.252 694.983,137.818 694.983,138.449C694.983,139.081 694.974,139.87 694.956,140.817C694.937,141.764 694.928,142.553 694.928,143.185C696.153,140.919 697.527,139.155 699.05,137.892C700.573,136.63 702.541,135.998 704.955,135.998C707.369,135.998 709.449,136.778 711.195,138.338C712.94,139.898 714.184,141.699 714.927,143.742C715.67,145.784 716.041,147.827 716.041,149.87C716.041,153.918 714.816,157.446 712.364,160.454C709.913,163.462 706.775,164.967 702.95,164.967C700.164,164.967 697.527,164.057 695.039,162.237C694.965,166.731 694.928,170.064 694.928,172.236C694.928,174.409 694.742,175.783 694.371,176.359C693.999,176.934 693.424,177.222 692.644,177.222C691.864,177.222 691.223,176.897 690.722,176.247C690.22,175.597 689.97,174.66 689.97,173.434C689.97,172.209 690.044,170.751 690.193,169.061C690.341,167.371 690.564,165.143 690.861,162.376C691.158,159.609 691.4,157.112 691.585,154.883L691.585,153.825L691.585,153.825Z" style="fill:white;fill-rule:nonzero;"/>
        <path d="M728.464,139.954L728.353,153.156C728.353,156.536 728.492,158.746 728.77,159.786C729.049,160.826 729.782,161.346 730.971,161.346C731.528,161.346 732.206,161.151 733.004,160.761C733.803,160.371 734.332,160.176 734.592,160.176C735.372,160.176 735.762,160.556 735.762,161.318C735.762,162.079 735.075,162.877 733.701,163.713C732.326,164.549 730.971,164.967 729.634,164.967C726.403,164.967 724.787,162.59 724.787,157.836L724.732,139.954C723.506,140.065 722.652,140.121 722.169,140.121C720.312,140.121 719.384,139.508 719.384,138.282C719.384,137.057 720.312,136.444 722.169,136.444C722.318,136.444 723.135,136.481 724.62,136.555L724.509,130.316C724.509,128.459 725.214,127.531 726.626,127.531C728.037,127.531 728.743,128.459 728.743,130.316L728.575,136.611L733.088,136.388C734.945,136.388 735.873,137.02 735.873,138.282C735.873,139.471 734.945,140.065 733.088,140.065C732.754,140.065 731.212,140.028 728.464,139.954L728.464,139.954Z" style="fill:white;fill-rule:nonzero;"/>
        <path d="M745.288,124.773C745.659,125.274 745.845,125.906 745.845,126.667C745.845,127.429 745.585,128.19 745.065,128.951C744.545,129.713 743.895,130.093 743.115,130.093C742.335,130.093 741.75,129.833 741.36,129.313C740.971,128.793 740.776,128.106 740.776,127.252C740.776,126.398 741.045,125.646 741.583,124.996C742.122,124.346 742.781,124.021 743.561,124.021C744.341,124.021 744.917,124.272 745.288,124.773L745.288,124.773ZM745.121,150.482L745.399,162.181C745.399,164.038 744.694,164.967 743.282,164.967C741.871,164.967 741.165,164.038 741.165,162.181L741.444,150.482L741.165,138.784C741.165,136.927 741.871,135.998 743.282,135.998C744.694,135.998 745.399,136.927 745.399,138.784L745.121,150.482Z" style="fill:white;fill-rule:nonzero;"/>
        <path d="M772.696,156.387C772.696,158.913 771.666,160.974 769.604,162.571C767.543,164.168 765.074,164.967 762.195,164.967C759.317,164.967 756.819,164.307 754.703,162.989C752.586,161.67 751.527,160.361 751.527,159.061C751.527,158.504 751.694,158.049 752.029,157.697C752.363,157.344 752.743,157.167 753.171,157.167C753.598,157.167 753.941,157.251 754.201,157.418C754.461,157.585 754.814,157.91 755.26,158.393C755.705,158.876 756.105,159.284 756.457,159.619C756.81,159.953 757.534,160.324 758.63,160.733C759.726,161.141 760.738,161.346 761.666,161.346C763.709,161.346 765.389,160.928 766.708,160.092C768.026,159.256 768.685,158.04 768.685,156.443C768.685,154.512 766.828,152.896 763.114,151.597C761.592,151.077 760.06,150.51 758.519,149.897C756.977,149.285 755.668,148.44 754.591,147.363C753.514,146.286 752.976,145.004 752.976,143.519C752.976,141.513 753.886,139.759 755.705,138.254C757.525,136.75 759.753,135.998 762.39,135.998C765.027,135.998 767.116,136.453 768.657,137.363C770.199,138.273 770.969,139.229 770.969,140.232C770.969,141.458 770.319,142.07 769.02,142.07C768.462,142.07 767.905,141.866 767.348,141.458C765.603,140.232 763.932,139.619 762.335,139.619C760.738,139.619 759.438,139.981 758.435,140.706C757.432,141.43 756.931,142.265 756.931,143.213C756.931,144.16 757.469,144.967 758.546,145.636C759.623,146.304 760.933,146.917 762.474,147.474C764.015,148.031 765.566,148.653 767.125,149.34C768.685,150.027 770.004,150.975 771.081,152.182C772.158,153.389 772.696,154.791 772.696,156.387L772.696,156.387Z" style="fill:white;fill-rule:nonzero;"/>
        <path d="M785.063,139.954L784.952,153.156C784.952,156.536 785.091,158.746 785.37,159.786C785.648,160.826 786.382,161.346 787.57,161.346C788.127,161.346 788.805,161.151 789.604,160.761C790.402,160.371 790.931,160.176 791.191,160.176C791.971,160.176 792.361,160.556 792.361,161.318C792.361,162.079 791.674,162.877 790.3,163.713C788.926,164.549 787.57,164.967 786.233,164.967C783.002,164.967 781.387,162.59 781.387,157.836L781.331,139.954C780.105,140.065 779.251,140.121 778.768,140.121C776.912,140.121 775.983,139.508 775.983,138.282C775.983,137.057 776.912,136.444 778.768,136.444C778.917,136.444 779.734,136.481 781.22,136.555L781.108,130.316C781.108,128.459 781.814,127.531 783.225,127.531C784.636,127.531 785.342,128.459 785.342,130.316L785.175,136.611L789.687,136.388C791.544,136.388 792.473,137.02 792.473,138.282C792.473,139.471 791.544,140.065 789.687,140.065C789.353,140.065 787.812,140.028 785.063,139.954L785.063,139.954Z" style="fill:white;fill-rule:nonzero;"/>
    </g>
</svg>
