<svg xmlns="http://www.w3.org/2000/svg" xmlns:xlink="http://www.w3.org/1999/xlink" xml:space="preserve" version="1.1" style="shape-rendering:geometricPrecision;text-rendering:geometricPrecision;image-rendering:optimizeQuality;" viewBox="0 0 842 1003.75" x="0px" y="0px" fill-rule="evenodd" clip-rule="evenodd"><defs><style type="text/css">
   
    .fil0 {fill:white}
   
  </style></defs><g><path class="fil0" d="M774 89c2,-6 -8,-33 -6,-32 3,1 12,31 13,40 3,23 -6,60 -10,85 -2,17 2,27 15,39 12,10 29,14 44,12 6,-1 9,-3 11,-9 3,-13 1,-38 -5,-51 -4,-7 -9,-14 -13,-22 -11,-22 -11,-42 -19,-62 -6,-16 -31,-37 -44,-61 -7,-12 -20,-23 -34,-26 -11,-3 -31,-4 -31,13 0,7 10,27 8,29 -4,7 -19,-27 -21,-29 -11,-15 -31,4 -35,17 -7,18 -2,13 -19,20 -34,13 -29,51 -28,78 1,23 -10,33 -18,52 -9,20 2,40 16,55 6,8 32,33 43,24 5,-5 27,-68 28,-81 1,-11 -12,-47 -15,-65 -1,-6 3,-21 5,-20 0,0 5,15 18,14 9,-1 13,-10 10,-17 -39,-86 21,18 22,20 3,8 3,19 5,27 2,14 5,28 7,42 2,9 8,13 16,18 3,1 3,1 6,-1 4,-4 16,-13 17,-14 2,-3 4,-9 6,-17 5,-34 3,-40 0,-68 -1,-11 4,3 8,-10z"/><path class="fil0" d="M695 99c0,-1 7,17 9,23 1,7 3,16 5,26 2,10 4,21 5,27 1,7 1,9 0,11 -1,2 -4,4 -5,5 -1,1 -1,2 -1,4 0,3 1,6 2,9 2,2 4,3 7,2 3,0 5,-1 8,-1 3,1 5,2 7,4 1,2 2,4 3,8 0,4 1,10 -1,13 -1,4 -4,6 -8,5 -4,-1 -9,-4 -16,-10 -6,-6 -14,-15 -19,-22 -6,-8 -10,-13 -13,-21 -3,-9 -11,-25 -13,-34 -5,-14 -7,-44 -7,-42 -1,5 36,15 37,-7z"/><path class="fil0" d="M763 187c-2,0 -4,2 -5,4 0,2 1,4 0,7 0,2 -1,3 -3,5 -1,1 -3,2 -5,3 -3,1 -5,1 -7,2 -2,0 -2,1 -3,2 0,2 0,5 0,9 0,3 0,7 0,10 0,2 0,4 1,5 2,1 5,1 8,-1 2,-1 4,-3 6,-5 2,-2 4,-4 5,-5 2,-2 3,-4 5,-7 1,-2 2,-5 2,-9 1,-4 0,-8 0,-11 0,-4 0,-5 -1,-7 0,-1 -1,-3 -3,-2z"/><path class="fil0" d="M677 200c9,6 21,26 21,37 0,8 -47,115 -58,132 -9,13 -77,72 -93,76 -13,2 -34,2 -49,3 -12,1 7,-21 12,-29 12,-21 -49,64 -67,98 -9,19 -8,28 -12,47 -2,9 -4,17 -7,23 -4,8 -12,14 -21,12 -5,-1 -12,-9 -14,-13 -1,-3 -2,-6 -3,-6 -7,2 8,23 18,27 4,1 -34,79 -38,88 -7,15 -14,28 -15,45 0,13 15,13 18,26 1,7 -7,10 -6,12 1,0 7,-1 10,0 7,1 9,12 1,17 -6,4 -17,8 -25,8 -16,0 -11,-8 -13,-14 -1,-5 -14,1 -20,-17 -6,-17 -4,-26 1,-43 12,-42 28,-83 40,-124 8,-28 25,-106 29,-132 4,-29 8,-56 14,-84 7,-37 9,-31 30,-57 10,-14 -9,2 -11,4 -30,28 -26,59 -34,94 -1,4 -1,4 -8,3 -37,-4 -55,-12 -77,-42 -19,-26 -28,-84 -18,-116 5,-16 14,-30 20,-46 3,-9 -23,18 -30,47 -12,51 20,121 19,126 -4,14 -23,35 -31,68 -6,21 -19,60 -22,78 -4,29 18,103 25,133 8,30 28,33 29,44 1,18 10,21 7,30 -2,11 -45,14 -51,12 -14,-3 0,-22 -3,-26 -2,-1 -6,-3 -9,-9 -6,-12 -8,-40 -12,-55 -9,-34 -40,-112 -42,-137 0,-6 1,-15 4,-25 38,-128 -22,-166 -33,-263 -5,-52 3,-65 42,-96 6,-4 8,-6 7,-7 -7,-9 -43,28 -48,31 -34,25 -96,-50 -114,-68 -12,-11 -38,-2 -39,-5 -1,-1 -1,-5 1,-9 8,-19 32,-24 50,-20 21,6 34,23 52,34 33,18 74,22 107,5 23,-11 36,-24 63,-32 46,-13 117,44 184,48 16,1 130,1 129,23 -1,15 -20,23 -12,55 6,25 39,64 66,60 21,-3 23,-79 36,-71z"/><path class="fil0" d="M556 450c23,-12 56,-45 76,-64 9,-8 -1,16 -2,25 -6,43 -1,81 3,124 1,7 5,36 1,42 -15,21 -37,-34 -39,-31 -2,1 10,22 11,25 7,11 15,19 29,15 2,0 2,0 3,11 1,11 3,34 7,52 4,21 12,50 19,71 3,9 10,15 11,19 2,5 -2,11 4,13 2,1 6,1 8,3 5,5 4,13 -4,16 -8,3 -23,6 -31,6 -12,1 -8,-3 -9,-10 -1,-4 -9,0 -14,-2 -8,-4 -7,-23 -7,-31 -1,-40 -26,-136 -39,-178 -10,-30 -13,-52 -32,-80 -3,-5 -18,-19 -18,-19 -1,-2 19,-5 23,-7z"/><path class="fil0" d="M190 428c0,11 1,33 -4,42 -8,19 -17,27 -23,49 -8,27 -6,46 -3,73 1,5 2,15 4,20 5,8 7,14 5,23 -2,10 -16,5 -22,3 -8,-4 -31,-20 -31,-30 0,-4 2,-13 8,-10 2,1 6,3 7,3 1,-1 -13,-21 -14,-25 -3,-9 -3,-21 1,-30 14,-32 26,-43 35,-84 6,-25 1,-51 1,-76 0,-12 2,-20 11,-27 3,-2 6,-3 8,-2 12,4 16,57 17,71z"/></g></svg>