<svg width="100%" height="100%" viewBox="0 0 2671 1204" version="1.1" xmlns="http://www.w3.org/2000/svg" xmlns:xlink="http://www.w3.org/1999/xlink" xml:space="preserve" style="fill-rule:evenodd;clip-rule:evenodd;stroke-linejoin:round;stroke-miterlimit:1.41421;">
    <g transform="matrix(1,0,0,1,-5579.12,-852.574)">
        <g transform="matrix(1,0,0,0.916667,0,75)">
            <g transform="matrix(4.8104,0,0,5.24771,-4698.27,-4020.59)">
                <path d="M2451.1,940.782L2474,974.279L2496.75,940.782L2502.51,940.782L2476.59,978.966L2476.59,1005.53L2467.65,1005.53L2467.65,978.575L2441.62,940.782L2451.1,940.782Z" style="fill:white;fill-rule:nonzero;"/>
                <path d="M2525.12,1006.6C2521.87,1006.6 2518.81,1005.97 2515.97,1004.7C2513.12,1003.43 2510.63,1001.7 2508.49,999.523C2506.36,997.342 2504.68,994.778 2503.44,991.832C2502.2,988.886 2501.59,985.753 2501.59,982.433C2501.59,978.429 2502.15,974.726 2503.27,971.324C2504.39,967.923 2505.99,964.985 2508.05,962.511C2510.12,960.037 2512.6,958.1 2515.5,956.7C2518.4,955.301 2521.62,954.601 2525.17,954.601C2528.3,954.601 2531.16,955.179 2533.76,956.334C2536.37,957.49 2538.61,959.036 2540.5,960.973C2542.39,962.91 2543.85,965.148 2544.9,967.687C2545.94,970.226 2546.46,972.879 2546.46,975.646L2509.2,975.646C2509.2,978.999 2509.66,982.107 2510.57,984.972C2511.48,987.836 2512.76,990.31 2514.4,992.394C2516.05,994.477 2518,996.105 2520.26,997.277C2522.53,998.448 2525.02,999.034 2527.76,999.034C2530.04,999.034 2532.22,998.701 2534.33,998.033C2536.42,997.366 2538.31,996.487 2539.99,995.397C2541.66,994.306 2543.08,993.053 2544.24,991.637C2545.39,990.221 2546.2,988.764 2546.65,987.267L2547.88,987.853C2547.13,990.457 2545.98,992.89 2544.43,995.153C2542.89,997.415 2541.09,999.401 2539.04,1001.11C2536.99,1002.82 2534.76,1004.16 2532.37,1005.14C2529.98,1006.11 2527.56,1006.6 2525.12,1006.6ZM2534.98,971.642L2535.96,971.642C2535.96,969.754 2535.6,967.996 2534.89,966.368C2534.17,964.741 2533.19,963.333 2531.93,962.145C2530.68,960.957 2529.21,960.021 2527.51,959.337C2525.82,958.654 2524.01,958.312 2522.09,958.312C2520.47,958.312 2518.91,958.645 2517.43,959.313C2515.95,959.98 2514.62,960.908 2513.45,962.096C2512.28,963.284 2511.32,964.692 2510.57,966.32C2509.82,967.947 2509.38,969.705 2509.25,971.593L2534.98,971.642Z" style="fill:white;fill-rule:nonzero;"/>
                <path d="M2598.31,998.693C2598.31,1000.19 2598.77,1001.54 2599.68,1002.75C2600.59,1003.95 2601.73,1004.88 2603.1,1005.53L2594.41,1005.53C2593.27,1004.98 2592.3,1004.1 2591.5,1002.92C2590.7,1001.73 2590.31,1000.32 2590.31,998.693C2589.33,999.376 2588.25,1000.17 2587.06,1001.09C2585.87,1002 2584.55,1002.86 2583.08,1003.67C2581.62,1004.49 2579.99,1005.18 2578.2,1005.75C2576.41,1006.32 2574.42,1006.6 2572.24,1006.6C2570.42,1006.6 2568.78,1006.28 2567.33,1005.65C2565.88,1005.02 2564.66,1004.14 2563.65,1003.04C2562.64,1001.93 2561.86,1000.61 2561.3,999.083C2560.75,997.553 2560.47,995.909 2560.47,994.152C2560.47,991.971 2560.89,990.001 2561.72,988.243C2562.55,986.486 2563.69,984.899 2565.14,983.483C2566.58,982.067 2568.28,980.813 2570.21,979.723C2572.15,978.632 2574.23,977.656 2576.44,976.793C2578.65,975.931 2580.95,975.174 2583.32,974.523C2585.7,973.872 2588.03,973.269 2590.31,972.716L2590.31,970.128C2590.31,967.849 2590.13,965.929 2589.77,964.366C2589.41,962.804 2588.85,961.543 2588.09,960.582C2587.32,959.622 2586.35,958.938 2585.18,958.531C2584.01,958.125 2582.59,957.921 2580.93,957.921C2579.4,957.921 2577.99,958.198 2576.68,958.751C2575.38,959.305 2574.24,960.045 2573.26,960.973C2572.29,961.901 2571.49,962.991 2570.87,964.244C2570.25,965.498 2569.85,966.824 2569.65,968.224L2562.52,968.224C2562.78,966.075 2563.5,964.155 2564.67,962.462C2565.84,960.769 2567.32,959.345 2569.09,958.19C2570.87,957.034 2572.87,956.147 2575.1,955.529C2577.33,954.91 2579.65,954.601 2582.05,954.601C2585.15,954.601 2587.74,954.918 2589.82,955.553C2591.9,956.188 2593.57,957.075 2594.82,958.214C2596.08,959.353 2596.97,960.745 2597.51,962.389C2598.05,964.033 2598.31,965.848 2598.31,967.833L2598.31,998.693ZM2590.31,976.427C2587.8,977.111 2585.24,977.965 2582.64,978.99C2580.04,980.016 2577.68,981.163 2575.59,982.433C2573.49,983.702 2571.77,985.102 2570.43,986.632C2569.1,988.162 2568.43,989.79 2568.43,991.515C2568.43,992.752 2568.68,993.916 2569.19,995.006C2569.69,996.097 2570.37,997.057 2571.22,997.887C2572.06,998.717 2573.03,999.368 2574.12,999.84C2575.21,1000.31 2576.34,1000.55 2577.51,1000.55C2578.78,1000.55 2579.96,1000.37 2581.05,1000.01C2582.14,999.653 2583.19,999.189 2584.2,998.619C2585.21,998.05 2586.21,997.399 2587.21,996.666C2588.2,995.934 2589.23,995.177 2590.31,994.396L2590.31,976.427Z" style="fill:white;fill-rule:nonzero;"/>
                <path d="M2622.78,954.601L2622.97,954.601L2624.29,964.806C2625.53,963.308 2626.84,961.941 2628.22,960.704C2629.61,959.467 2631.02,958.393 2632.47,957.482C2633.92,956.57 2635.4,955.862 2636.91,955.358C2638.43,954.853 2639.92,954.601 2641.38,954.601C2642.68,954.601 2643.97,954.788 2645.24,955.162C2646.51,955.537 2647.71,956.098 2648.85,956.847L2646.12,964.073C2645.27,963.553 2644.52,963.154 2643.87,962.877C2643.22,962.6 2642.59,962.397 2641.97,962.267C2641.35,962.137 2640.7,962.063 2640.01,962.047C2639.33,962.031 2638.55,962.023 2637.67,962.023C2636.24,962.023 2634.84,962.307 2633.47,962.877C2632.1,963.447 2630.83,964.196 2629.66,965.123C2628.49,966.051 2627.45,967.101 2626.54,968.273C2625.62,969.445 2624.88,970.633 2624.29,971.837L2624.29,1005.53L2616.33,1005.53L2616.33,957.091L2622.78,954.601Z" style="fill:white;fill-rule:nonzero;"/>
                <path d="M2673.66,1003.14C2675.15,1003.14 2676.53,1002.93 2677.78,1002.53C2679.03,1002.12 2680.12,1001.57 2681.03,1000.89C2681.94,1000.21 2682.65,999.417 2683.15,998.522C2683.66,997.627 2683.91,996.707 2683.91,995.763C2683.91,994.168 2683.53,992.776 2682.76,991.588C2682,990.4 2680.99,989.342 2679.74,988.414C2678.48,987.487 2677.06,986.64 2675.46,985.875C2673.87,985.11 2672.24,984.337 2670.58,983.556C2668.92,982.775 2667.29,981.936 2665.7,981.041C2664.1,980.146 2662.68,979.121 2661.42,977.965C2660.17,976.809 2659.16,975.467 2658.4,973.937C2657.63,972.407 2657.25,970.6 2657.25,968.517C2657.25,966.531 2657.65,964.684 2658.45,962.975C2659.24,961.266 2660.36,959.793 2661.79,958.556C2663.22,957.319 2664.92,956.35 2666.89,955.651C2668.86,954.951 2671,954.601 2673.31,954.601C2674.84,954.601 2676.28,954.715 2677.64,954.943C2678.99,955.17 2680.31,955.618 2681.62,956.285C2682.92,956.953 2684.24,957.897 2685.59,959.117C2686.95,960.338 2688.39,961.941 2689.92,963.927L2687.33,966.271C2685.6,963.439 2683.54,961.339 2681.15,959.972C2678.76,958.605 2676.11,957.921 2673.22,957.921C2671.65,957.921 2670.22,958.092 2668.92,958.434C2667.62,958.776 2666.5,959.248 2665.58,959.85C2664.65,960.452 2663.93,961.16 2663.43,961.974C2662.92,962.788 2662.67,963.65 2662.67,964.562C2662.67,966.124 2663.09,967.483 2663.91,968.639C2664.74,969.794 2665.84,970.828 2667.21,971.739C2668.58,972.651 2670.13,973.497 2671.87,974.279C2673.62,975.06 2675.39,975.841 2677.2,976.622C2679,977.404 2680.78,978.242 2682.52,979.137C2684.26,980.032 2685.81,981.057 2687.18,982.213C2688.55,983.369 2689.65,984.703 2690.48,986.217C2691.31,987.731 2691.72,989.497 2691.72,991.515C2691.72,993.631 2691.36,995.608 2690.62,997.447C2689.89,999.287 2688.78,1000.88 2687.28,1002.23C2685.78,1003.58 2683.9,1004.65 2681.64,1005.43C2679.38,1006.21 2676.72,1006.6 2673.66,1006.6C2672.29,1006.6 2670.88,1006.49 2669.43,1006.26C2667.98,1006.03 2666.52,1005.59 2665.04,1004.92C2663.56,1004.25 2662.05,1003.31 2660.52,1002.09C2658.99,1000.87 2657.46,999.279 2655.93,997.325L2659.06,994.542C2660.13,996.105 2661.2,997.431 2662.28,998.522C2663.35,999.612 2664.47,1000.5 2665.62,1001.18C2666.78,1001.87 2668.02,1002.36 2669.34,1002.67C2670.65,1002.98 2672.09,1003.14 2673.66,1003.14Z" style="fill:white;fill-rule:nonzero;"/>
            </g>
        </g>
        <g transform="matrix(1,0,0,0.916667,0,75)">
            <g transform="matrix(24.6324,0,0,26.8717,-58947.8,-10441.7)">
                <path d="M2640.03,421.07L2628.21,453.272L2625.31,453.272L2636.44,424.121L2619.6,424.121L2621.45,420.142L2640.03,420.142L2640.03,421.07Z" style="fill:white;fill-rule:nonzero;"/>
                <path d="M2665.1,424.121L2654.83,424.121L2652.63,428.54C2654.56,428.54 2656.4,428.858 2658.14,429.492C2659.89,430.127 2661.41,431.006 2662.72,432.129C2664.03,433.252 2665.08,434.587 2665.85,436.133C2666.62,437.679 2667.01,439.364 2667.01,441.187C2667.01,442.847 2666.64,444.409 2665.92,445.874C2665.2,447.339 2664.21,448.621 2662.95,449.719C2661.7,450.818 2660.23,451.685 2658.55,452.32C2656.86,452.954 2655.05,453.272 2653.12,453.272C2652.29,453.272 2651.53,453.186 2650.83,453.015C2650.14,452.844 2649.55,452.613 2649.06,452.32C2648.58,452.027 2648.19,451.685 2647.92,451.294C2647.64,450.904 2647.5,450.488 2647.5,450.049C2647.5,449.479 2647.68,449.052 2648.03,448.767C2648.38,448.482 2648.79,448.34 2649.26,448.34C2649.71,448.34 2650.14,448.442 2650.55,448.645C2650.96,448.849 2651.37,449.089 2651.8,449.365C2652.04,449.528 2652.3,449.687 2652.58,449.842C2652.86,449.996 2653.17,450.134 2653.52,450.257C2653.87,450.379 2654.26,450.48 2654.69,450.562C2655.12,450.643 2655.62,450.684 2656.19,450.684C2657.32,450.684 2658.37,450.476 2659.37,450.061C2660.36,449.646 2661.23,449.081 2661.98,448.364C2662.73,447.648 2663.32,446.806 2663.75,445.838C2664.18,444.869 2664.39,443.832 2664.39,442.725C2664.39,441.227 2664.02,439.868 2663.26,438.648C2662.5,437.427 2661.43,436.381 2660.03,435.51C2658.62,434.64 2656.93,433.968 2654.95,433.496C2652.96,433.024 2650.75,432.788 2648.31,432.788L2655.29,420.142L2667.13,420.142L2665.1,424.121Z" style="fill:white;fill-rule:nonzero;"/>
            </g>
        </g>
        <g transform="matrix(1,0,0,0.916667,0,75)">
            <g transform="matrix(3.96407,0,0,4.32444,-2072.93,-2638.99)">
                <path d="M2343.51,952.007C2343.51,952.573 2343.68,953.085 2344.03,953.54C2344.37,953.996 2344.8,954.347 2345.32,954.594L2342.03,954.594C2341.6,954.384 2341.23,954.055 2340.93,953.605C2340.63,953.155 2340.48,952.623 2340.48,952.007C2340.11,952.266 2339.7,952.567 2339.25,952.912C2338.8,953.257 2338.3,953.583 2337.74,953.891C2337.19,954.199 2336.57,954.461 2335.89,954.677C2335.22,954.892 2334.47,955 2333.64,955C2332.95,955 2332.33,954.88 2331.78,954.64C2331.24,954.4 2330.77,954.07 2330.39,953.651C2330.01,953.232 2329.71,952.734 2329.5,952.155C2329.29,951.576 2329.19,950.954 2329.19,950.289C2329.19,949.463 2329.35,948.718 2329.66,948.053C2329.97,947.388 2330.41,946.787 2330.95,946.251C2331.5,945.716 2332.14,945.241 2332.87,944.829C2333.61,944.416 2334.39,944.047 2335.23,943.72C2336.07,943.394 2336.94,943.107 2337.84,942.861C2338.74,942.615 2339.62,942.387 2340.48,942.177L2340.48,941.198C2340.48,940.336 2340.41,939.609 2340.27,939.018C2340.14,938.427 2339.93,937.949 2339.64,937.586C2339.35,937.223 2338.98,936.964 2338.54,936.81C2338.09,936.656 2337.56,936.579 2336.93,936.579C2336.35,936.579 2335.82,936.684 2335.32,936.893C2334.83,937.102 2334.4,937.383 2334.03,937.734C2333.66,938.085 2333.36,938.497 2333.12,938.972C2332.89,939.446 2332.74,939.948 2332.66,940.477L2329.96,940.477C2330.06,939.665 2330.33,938.938 2330.78,938.297C2331.22,937.657 2331.78,937.118 2332.45,936.681C2333.12,936.243 2333.88,935.908 2334.72,935.674C2335.57,935.44 2336.44,935.323 2337.36,935.323C2338.53,935.323 2339.5,935.443 2340.29,935.683C2341.08,935.923 2341.71,936.259 2342.19,936.69C2342.66,937.121 2343,937.648 2343.2,938.27C2343.41,938.892 2343.51,939.578 2343.51,940.33L2343.51,952.007ZM2340.48,943.582C2339.53,943.84 2338.56,944.164 2337.58,944.552C2336.59,944.94 2335.7,945.374 2334.91,945.854C2334.11,946.335 2333.46,946.864 2332.96,947.443C2332.45,948.022 2332.2,948.638 2332.2,949.291C2332.2,949.759 2332.3,950.199 2332.49,950.612C2332.68,951.025 2332.93,951.388 2333.25,951.702C2333.57,952.016 2333.94,952.262 2334.35,952.441C2334.76,952.62 2335.19,952.709 2335.64,952.709C2336.12,952.709 2336.56,952.641 2336.98,952.506C2337.39,952.37 2337.79,952.195 2338.17,951.979C2338.55,951.764 2338.93,951.517 2339.3,951.24C2339.68,950.963 2340.07,950.677 2340.48,950.381L2340.48,943.582Z" style="fill:white;fill-rule:nonzero;"/>
                <path d="M2352.78,935.323L2353.36,935.323L2353.36,938.999C2354.82,937.718 2356.17,936.785 2357.41,936.2C2358.65,935.615 2359.86,935.323 2361.04,935.323C2361.64,935.323 2362.22,935.47 2362.75,935.766C2363.29,936.062 2363.75,936.468 2364.15,936.985C2364.54,937.503 2364.85,938.109 2365.08,938.805C2365.31,939.501 2365.42,940.243 2365.42,941.032L2365.42,954.594L2362.41,954.594L2362.41,941.678C2362.41,941.05 2362.33,940.499 2362.16,940.025C2361.99,939.551 2361.76,939.153 2361.46,938.833C2361.16,938.513 2360.8,938.27 2360.39,938.103C2359.97,937.937 2359.52,937.854 2359.03,937.854C2358.6,937.854 2358.14,937.937 2357.66,938.103C2357.18,938.27 2356.7,938.491 2356.21,938.768C2355.72,939.046 2355.24,939.369 2354.75,939.738C2354.26,940.108 2353.8,940.496 2353.36,940.902L2353.36,954.594L2350.33,954.594L2350.33,936.283L2352.78,935.323Z" style="fill:white;fill-rule:nonzero;"/>
                <path d="M2393.62,952.007C2393.62,952.573 2393.79,953.085 2394.13,953.54C2394.48,953.996 2394.91,954.347 2395.43,954.594L2392.14,954.594C2391.71,954.384 2391.34,954.055 2391.04,953.605C2390.74,953.155 2390.59,952.623 2390.59,952.007C2390.22,952.266 2389.81,952.567 2389.36,952.912C2388.91,953.257 2388.41,953.583 2387.85,953.891C2387.3,954.199 2386.68,954.461 2386,954.677C2385.33,954.892 2384.58,955 2383.75,955C2383.06,955 2382.44,954.88 2381.89,954.64C2381.34,954.4 2380.88,954.07 2380.5,953.651C2380.12,953.232 2379.82,952.734 2379.61,952.155C2379.4,951.576 2379.3,950.954 2379.3,950.289C2379.3,949.463 2379.45,948.718 2379.77,948.053C2380.08,947.388 2380.51,946.787 2381.06,946.251C2381.61,945.716 2382.25,945.241 2382.98,944.829C2383.72,944.416 2384.5,944.047 2385.34,943.72C2386.18,943.394 2387.04,943.107 2387.94,942.861C2388.84,942.615 2389.72,942.387 2390.59,942.177L2390.59,941.198C2390.59,940.336 2390.52,939.609 2390.38,939.018C2390.25,938.427 2390.03,937.949 2389.74,937.586C2389.46,937.223 2389.09,936.964 2388.65,936.81C2388.2,936.656 2387.67,936.579 2387.04,936.579C2386.46,936.579 2385.92,936.684 2385.43,936.893C2384.94,937.102 2384.51,937.383 2384.14,937.734C2383.77,938.085 2383.47,938.497 2383.23,938.972C2383,939.446 2382.84,939.948 2382.77,940.477L2380.07,940.477C2380.17,939.665 2380.44,938.938 2380.89,938.297C2381.33,937.657 2381.89,937.118 2382.56,936.681C2383.23,936.243 2383.99,935.908 2384.83,935.674C2385.67,935.44 2386.55,935.323 2387.46,935.323C2388.63,935.323 2389.61,935.443 2390.4,935.683C2391.19,935.923 2391.82,936.259 2392.3,936.69C2392.77,937.121 2393.11,937.648 2393.31,938.27C2393.51,938.892 2393.62,939.578 2393.62,940.33L2393.62,952.007ZM2390.59,943.582C2389.64,943.84 2388.67,944.164 2387.68,944.552C2386.7,944.94 2385.81,945.374 2385.01,945.854C2384.22,946.335 2383.57,946.864 2383.07,947.443C2382.56,948.022 2382.31,948.638 2382.31,949.291C2382.31,949.759 2382.4,950.199 2382.6,950.612C2382.79,951.025 2383.04,951.388 2383.36,951.702C2383.68,952.016 2384.05,952.262 2384.46,952.441C2384.87,952.62 2385.3,952.709 2385.74,952.709C2386.22,952.709 2386.67,952.641 2387.09,952.506C2387.5,952.37 2387.89,952.195 2388.28,951.979C2388.66,951.764 2389.04,951.517 2389.41,951.24C2389.79,950.963 2390.18,950.677 2390.59,950.381L2390.59,943.582Z" style="fill:white;fill-rule:nonzero;"/>
                <path d="M2402.89,935.323L2403.46,935.323L2403.46,938.999C2404.93,937.718 2406.28,936.785 2407.52,936.2C2408.76,935.615 2409.97,935.323 2411.15,935.323C2411.75,935.323 2412.32,935.47 2412.86,935.766C2413.39,936.062 2413.86,936.468 2414.25,936.985C2414.65,937.503 2414.96,938.109 2415.19,938.805C2415.41,939.501 2415.53,940.243 2415.53,941.032L2415.53,954.594L2412.52,954.594L2412.52,941.678C2412.52,941.05 2412.43,940.499 2412.27,940.025C2412.1,939.551 2411.87,939.153 2411.57,938.833C2411.26,938.513 2410.91,938.27 2410.49,938.103C2410.08,937.937 2409.63,937.854 2409.14,937.854C2408.7,937.854 2408.25,937.937 2407.77,938.103C2407.29,938.27 2406.8,938.491 2406.32,938.768C2405.83,939.046 2405.35,939.369 2404.86,939.738C2404.37,940.108 2403.91,940.496 2403.46,940.902L2403.46,954.594L2400.43,954.594L2400.43,936.283L2402.89,935.323Z" style="fill:white;fill-rule:nonzero;"/>
                <path d="M2425.38,935.323L2425.95,935.323L2425.95,938.999C2427.42,937.718 2428.77,936.785 2430.01,936.2C2431.24,935.615 2432.45,935.323 2433.64,935.323C2434.24,935.323 2434.81,935.47 2435.35,935.766C2435.88,936.062 2436.35,936.468 2436.74,936.985C2437.13,937.503 2437.45,938.109 2437.67,938.805C2437.9,939.501 2438.01,940.243 2438.01,941.032L2438.01,954.594L2435,954.594L2435,941.678C2435,941.05 2434.92,940.499 2434.75,940.025C2434.59,939.551 2434.35,939.153 2434.05,938.833C2433.75,938.513 2433.39,938.27 2432.98,938.103C2432.57,937.937 2432.12,937.854 2431.62,937.854C2431.19,937.854 2430.74,937.937 2430.26,938.103C2429.77,938.27 2429.29,938.491 2428.8,938.768C2428.32,939.046 2427.83,939.369 2427.35,939.738C2426.86,940.108 2426.39,940.496 2425.95,940.902L2425.95,954.594L2422.92,954.594L2422.92,936.283L2425.38,935.323Z" style="fill:white;fill-rule:nonzero;"/>
                <path d="M2445.7,936.302L2448.1,935.323L2448.69,935.323L2448.69,954.594L2445.7,954.594L2445.7,936.302ZM2445.41,928.431C2445.41,928.135 2445.45,927.858 2445.54,927.599C2445.64,927.341 2445.76,927.113 2445.92,926.916C2446.08,926.719 2446.27,926.565 2446.49,926.454C2446.7,926.343 2446.93,926.288 2447.18,926.288C2447.43,926.288 2447.66,926.343 2447.87,926.454C2448.09,926.565 2448.28,926.719 2448.44,926.916C2448.6,927.113 2448.72,927.341 2448.82,927.599C2448.91,927.858 2448.95,928.135 2448.95,928.431C2448.95,928.726 2448.91,929.004 2448.82,929.262C2448.72,929.521 2448.6,929.749 2448.44,929.946C2448.28,930.143 2448.09,930.297 2447.87,930.408C2447.66,930.519 2447.43,930.574 2447.18,930.574C2446.93,930.574 2446.7,930.519 2446.49,930.408C2446.27,930.297 2446.08,930.143 2445.92,929.946C2445.76,929.749 2445.64,929.521 2445.54,929.262C2445.45,929.004 2445.41,928.726 2445.41,928.431Z" style="fill:white;fill-rule:nonzero;"/>
                <path d="M2456.47,935.674L2463.35,950.362L2469.92,935.674L2471.62,935.674L2463.11,954.797L2462.13,954.797L2453.2,935.674L2456.47,935.674Z" style="fill:white;fill-rule:nonzero;"/>
                <path d="M2482.89,955C2481.66,955 2480.51,954.76 2479.43,954.279C2478.35,953.799 2477.41,953.146 2476.6,952.321C2475.8,951.496 2475.16,950.526 2474.69,949.411C2474.22,948.296 2473.99,947.111 2473.99,945.854C2473.99,944.339 2474.2,942.938 2474.63,941.651C2475.05,940.364 2475.66,939.252 2476.44,938.316C2477.22,937.38 2478.16,936.647 2479.26,936.117C2480.35,935.587 2481.57,935.323 2482.91,935.323C2484.1,935.323 2485.18,935.541 2486.16,935.978C2487.15,936.416 2488,937.001 2488.72,937.734C2489.43,938.467 2489.98,939.313 2490.38,940.274C2490.77,941.235 2490.97,942.239 2490.97,943.286L2476.87,943.286C2476.87,944.555 2477.04,945.731 2477.39,946.815C2477.73,947.899 2478.22,948.835 2478.84,949.623C2479.46,950.412 2480.2,951.028 2481.06,951.471C2481.91,951.914 2482.86,952.136 2483.89,952.136C2484.75,952.136 2485.58,952.01 2486.38,951.757C2487.17,951.505 2487.89,951.172 2488.52,950.76C2489.16,950.347 2489.69,949.873 2490.13,949.337C2490.57,948.801 2490.87,948.25 2491.04,947.683L2491.5,947.905C2491.22,948.89 2490.79,949.811 2490.2,950.667C2489.62,951.523 2488.94,952.275 2488.16,952.921C2487.38,953.568 2486.54,954.076 2485.64,954.446C2484.73,954.815 2483.82,955 2482.89,955ZM2486.63,941.771L2487,941.771C2487,941.056 2486.86,940.391 2486.59,939.775C2486.32,939.16 2485.95,938.627 2485.47,938.177C2485,937.728 2484.44,937.373 2483.8,937.115C2483.16,936.856 2482.48,936.727 2481.75,936.727C2481.13,936.727 2480.55,936.853 2479.98,937.106C2479.42,937.358 2478.92,937.709 2478.48,938.159C2478.03,938.608 2477.67,939.141 2477.39,939.757C2477.11,940.373 2476.94,941.038 2476.89,941.752L2486.63,941.771Z" style="fill:white;fill-rule:nonzero;"/>
                <path d="M2499.99,935.323L2500.06,935.323L2500.56,939.184C2501.03,938.618 2501.52,938.1 2502.05,937.632C2502.57,937.164 2503.11,936.758 2503.65,936.413C2504.2,936.068 2504.76,935.8 2505.33,935.609C2505.91,935.418 2506.47,935.323 2507.03,935.323C2507.52,935.323 2508,935.393 2508.48,935.535C2508.97,935.677 2509.42,935.889 2509.85,936.172L2508.82,938.907C2508.5,938.71 2508.21,938.559 2507.97,938.454C2507.72,938.35 2507.48,938.273 2507.25,938.223C2507.01,938.174 2506.77,938.146 2506.51,938.14C2506.25,938.134 2505.95,938.131 2505.62,938.131C2505.08,938.131 2504.55,938.239 2504.03,938.454C2503.51,938.67 2503.03,938.953 2502.59,939.304C2502.15,939.655 2501.75,940.053 2501.41,940.496C2501.06,940.939 2500.78,941.389 2500.56,941.845L2500.56,954.594L2497.55,954.594L2497.55,936.265L2499.99,935.323Z" style="fill:white;fill-rule:nonzero;"/>
                <path d="M2519.24,953.688C2519.8,953.688 2520.33,953.611 2520.8,953.457C2521.27,953.303 2521.68,953.097 2522.03,952.838C2522.37,952.58 2522.64,952.281 2522.83,951.942C2523.02,951.603 2523.12,951.255 2523.12,950.898C2523.12,950.295 2522.97,949.768 2522.68,949.319C2522.39,948.869 2522.01,948.469 2521.54,948.118C2521.06,947.766 2520.53,947.446 2519.92,947.157C2519.32,946.867 2518.7,946.575 2518.07,946.279C2517.45,945.983 2516.83,945.666 2516.23,945.328C2515.62,944.989 2515.08,944.601 2514.61,944.164C2514.14,943.726 2513.75,943.218 2513.46,942.639C2513.17,942.06 2513.03,941.377 2513.03,940.588C2513.03,939.837 2513.18,939.138 2513.48,938.491C2513.78,937.845 2514.21,937.287 2514.75,936.819C2515.29,936.351 2515.93,935.985 2516.68,935.72C2517.42,935.455 2518.23,935.323 2519.11,935.323C2519.69,935.323 2520.23,935.366 2520.74,935.452C2521.26,935.538 2521.76,935.707 2522.25,935.96C2522.74,936.212 2523.24,936.57 2523.76,937.032C2524.27,937.494 2524.81,938.1 2525.39,938.852L2524.41,939.738C2523.76,938.667 2522.98,937.872 2522.07,937.355C2521.17,936.838 2520.17,936.579 2519.07,936.579C2518.48,936.579 2517.94,936.644 2517.45,936.773C2516.95,936.902 2516.53,937.081 2516.18,937.309C2515.83,937.537 2515.56,937.805 2515.37,938.112C2515.18,938.42 2515.08,938.747 2515.08,939.092C2515.08,939.683 2515.24,940.197 2515.55,940.635C2515.87,941.072 2516.28,941.463 2516.8,941.808C2517.32,942.153 2517.9,942.473 2518.56,942.769C2519.22,943.064 2519.89,943.36 2520.58,943.655C2521.26,943.951 2521.93,944.268 2522.59,944.607C2523.25,944.946 2523.84,945.334 2524.36,945.771C2524.87,946.208 2525.29,946.713 2525.6,947.286C2525.92,947.859 2526.07,948.527 2526.07,949.291C2526.07,950.091 2525.93,950.84 2525.66,951.536C2525.38,952.232 2524.96,952.835 2524.39,953.346C2523.83,953.858 2523.12,954.261 2522.26,954.557C2521.4,954.852 2520.4,955 2519.24,955C2518.72,955 2518.19,954.957 2517.64,954.871C2517.09,954.784 2516.54,954.615 2515.98,954.363C2515.42,954.11 2514.85,953.753 2514.27,953.291C2513.69,952.829 2513.11,952.229 2512.53,951.489L2513.71,950.436C2514.12,951.028 2514.53,951.53 2514.93,951.942C2515.34,952.355 2515.76,952.69 2516.2,952.949C2516.64,953.208 2517.1,953.396 2517.6,953.513C2518.1,953.63 2518.65,953.688 2519.24,953.688Z" style="fill:white;fill-rule:nonzero;"/>
                <path d="M2545.18,952.007C2545.18,952.573 2545.35,953.085 2545.7,953.54C2546.04,953.996 2546.47,954.347 2546.99,954.594L2543.7,954.594C2543.27,954.384 2542.9,954.055 2542.6,953.605C2542.3,953.155 2542.15,952.623 2542.15,952.007C2541.78,952.266 2541.37,952.567 2540.92,952.912C2540.47,953.257 2539.97,953.583 2539.41,953.891C2538.86,954.199 2538.24,954.461 2537.57,954.677C2536.89,954.892 2536.14,955 2535.31,955C2534.62,955 2534,954.88 2533.45,954.64C2532.91,954.4 2532.44,954.07 2532.06,953.651C2531.68,953.232 2531.38,952.734 2531.17,952.155C2530.96,951.576 2530.86,950.954 2530.86,950.289C2530.86,949.463 2531.02,948.718 2531.33,948.053C2531.64,947.388 2532.08,946.787 2532.62,946.251C2533.17,945.716 2533.81,945.241 2534.55,944.829C2535.28,944.416 2536.06,944.047 2536.9,943.72C2537.74,943.394 2538.61,943.107 2539.51,942.861C2540.41,942.615 2541.29,942.387 2542.15,942.177L2542.15,941.198C2542.15,940.336 2542.08,939.609 2541.95,939.018C2541.81,938.427 2541.6,937.949 2541.31,937.586C2541.02,937.223 2540.65,936.964 2540.21,936.81C2539.76,936.656 2539.23,936.579 2538.6,936.579C2538.02,936.579 2537.49,936.684 2536.99,936.893C2536.5,937.102 2536.07,937.383 2535.7,937.734C2535.33,938.085 2535.03,938.497 2534.8,938.972C2534.56,939.446 2534.41,939.948 2534.33,940.477L2531.64,940.477C2531.73,939.665 2532.01,938.938 2532.45,938.297C2532.89,937.657 2533.45,937.118 2534.12,936.681C2534.79,936.243 2535.55,935.908 2536.39,935.674C2537.24,935.44 2538.12,935.323 2539.03,935.323C2540.2,935.323 2541.18,935.443 2541.96,935.683C2542.75,935.923 2543.38,936.259 2543.86,936.69C2544.33,937.121 2544.67,937.648 2544.87,938.27C2545.08,938.892 2545.18,939.578 2545.18,940.33L2545.18,952.007ZM2542.15,943.582C2541.2,943.84 2540.23,944.164 2539.25,944.552C2538.26,944.94 2537.37,945.374 2536.58,945.854C2535.78,946.335 2535.13,946.864 2534.63,947.443C2534.12,948.022 2533.87,948.638 2533.87,949.291C2533.87,949.759 2533.97,950.199 2534.16,950.612C2534.35,951.025 2534.6,951.388 2534.92,951.702C2535.24,952.016 2535.61,952.262 2536.02,952.441C2536.44,952.62 2536.86,952.709 2537.31,952.709C2537.79,952.709 2538.24,952.641 2538.65,952.506C2539.06,952.37 2539.46,952.195 2539.84,951.979C2540.22,951.764 2540.6,951.517 2540.97,951.24C2541.35,950.963 2541.74,950.677 2542.15,950.381L2542.15,943.582Z" style="fill:white;fill-rule:nonzero;"/>
                <path d="M2554.43,935.323L2554.51,935.323L2555.01,939.184C2555.48,938.618 2555.97,938.1 2556.5,937.632C2557.02,937.164 2557.55,936.758 2558.1,936.413C2558.65,936.068 2559.21,935.8 2559.78,935.609C2560.36,935.418 2560.92,935.323 2561.47,935.323C2561.97,935.323 2562.45,935.393 2562.93,935.535C2563.41,935.677 2563.87,935.889 2564.3,936.172L2563.27,938.907C2562.95,938.71 2562.66,938.559 2562.42,938.454C2562.17,938.35 2561.93,938.273 2561.7,938.223C2561.46,938.174 2561.22,938.146 2560.96,938.14C2560.7,938.134 2560.4,938.131 2560.07,938.131C2559.53,938.131 2559,938.239 2558.48,938.454C2557.96,938.67 2557.48,938.953 2557.04,939.304C2556.6,939.655 2556.2,940.053 2555.86,940.496C2555.51,940.939 2555.23,941.389 2555.01,941.845L2555.01,954.594L2552,954.594L2552,936.265L2554.43,935.323Z" style="fill:white;fill-rule:nonzero;"/>
                <path d="M2567.74,959.268C2568.01,959.404 2568.33,959.545 2568.71,959.693C2569.08,959.841 2569.57,959.915 2570.16,959.915C2570.63,959.915 2571.04,959.795 2571.41,959.554C2571.77,959.314 2572.09,959.016 2572.37,958.658C2572.64,958.301 2572.89,957.919 2573.1,957.513C2573.31,957.106 2573.49,956.731 2573.63,956.386L2574.96,953.337L2565.47,935.674L2569.07,935.674L2576.57,949.642L2582.65,935.674L2584.7,935.674L2575.2,957.494C2574.8,958.418 2574.31,959.24 2573.74,959.961C2573.18,960.682 2572.58,961.291 2571.95,961.79C2571.32,962.289 2570.69,962.668 2570.06,962.926C2569.42,963.185 2568.83,963.314 2568.27,963.314C2567.89,963.314 2567.52,963.256 2567.15,963.139C2566.78,963.022 2566.47,962.859 2566.22,962.649L2567.74,959.268Z" style="fill:white;fill-rule:nonzero;"/>
            </g>
        </g>
        <g transform="matrix(1,0,0,0.916667,0,75)">
            <g transform="matrix(3.96407,0,0,4.32444,-2068.47,-2454.24)">
                <path d="M2340.1,942.984C2339.99,942.604 2339.84,942.219 2339.64,941.829C2339.45,941.439 2339.19,941.088 2338.88,940.775C2338.57,940.462 2338.18,940.205 2337.74,940.005C2337.29,939.805 2336.77,939.705 2336.16,939.705C2335.4,939.705 2334.72,939.848 2334.12,940.136C2333.52,940.423 2333.01,940.813 2332.6,941.306C2332.18,941.799 2331.86,942.373 2331.64,943.03C2331.42,943.687 2331.31,944.385 2331.31,945.124C2331.31,946.13 2331.45,947.082 2331.73,947.98C2332,948.879 2332.39,949.666 2332.9,950.344C2333.4,951.021 2334.01,951.558 2334.72,951.953C2335.43,952.348 2336.23,952.546 2337.1,952.546C2337.89,952.546 2338.57,952.435 2339.14,952.215C2339.71,951.994 2340.2,951.694 2340.62,951.314C2341.03,950.934 2341.39,950.493 2341.67,949.99C2341.96,949.487 2342.21,948.958 2342.43,948.404L2342.86,948.589C2342.58,949.595 2342.22,950.49 2341.79,951.275C2341.35,952.061 2340.84,952.723 2340.26,953.262C2339.67,953.801 2339.01,954.214 2338.28,954.501C2337.56,954.789 2336.77,954.932 2335.91,954.932C2334.93,954.932 2334,954.73 2333.14,954.324C2332.27,953.919 2331.51,953.362 2330.86,952.654C2330.22,951.945 2329.71,951.119 2329.34,950.175C2328.97,949.23 2328.78,948.219 2328.78,947.141C2328.78,945.951 2328.99,944.832 2329.4,943.785C2329.81,942.738 2330.37,941.827 2331.09,941.052C2331.8,940.277 2332.63,939.664 2333.59,939.212C2334.54,938.76 2335.56,938.534 2336.64,938.534C2337.22,938.534 2337.79,938.606 2338.33,938.75C2338.88,938.894 2339.38,939.102 2339.83,939.374C2340.29,939.646 2340.7,939.974 2341.05,940.359C2341.4,940.744 2341.69,941.178 2341.9,941.66L2340.1,942.984Z" style="fill:white;fill-rule:nonzero;"/>
                <path d="M2354.24,954.932C2353.21,954.932 2352.25,954.732 2351.35,954.332C2350.45,953.931 2349.67,953.387 2348.99,952.7C2348.32,952.012 2347.79,951.204 2347.4,950.275C2347.01,949.346 2346.82,948.358 2346.82,947.311C2346.82,946.048 2346.99,944.881 2347.35,943.808C2347.7,942.735 2348.2,941.809 2348.86,941.029C2349.51,940.249 2350.29,939.638 2351.2,939.196C2352.12,938.755 2353.13,938.534 2354.25,938.534C2355.24,938.534 2356.14,938.717 2356.96,939.081C2357.78,939.445 2358.49,939.933 2359.09,940.544C2359.68,941.154 2360.14,941.86 2360.47,942.661C2360.8,943.461 2360.97,944.298 2360.97,945.171L2349.22,945.171C2349.22,946.228 2349.36,947.208 2349.65,948.111C2349.93,949.015 2350.34,949.795 2350.86,950.452C2351.38,951.109 2351.99,951.622 2352.7,951.991C2353.42,952.361 2354.21,952.546 2355.07,952.546C2355.79,952.546 2356.48,952.441 2357.14,952.23C2357.8,952.02 2358.4,951.743 2358.93,951.399C2359.45,951.055 2359.9,950.66 2360.26,950.213C2360.63,949.767 2360.88,949.307 2361.03,948.835L2361.41,949.02C2361.18,949.841 2360.81,950.608 2360.33,951.322C2359.84,952.035 2359.27,952.661 2358.62,953.2C2357.98,953.739 2357.28,954.162 2356.52,954.47C2355.77,954.778 2355.01,954.932 2354.24,954.932ZM2357.35,943.908L2357.66,943.908C2357.66,943.313 2357.54,942.758 2357.32,942.245C2357.09,941.732 2356.78,941.288 2356.38,940.913C2355.99,940.539 2355.53,940.243 2354.99,940.028C2354.46,939.812 2353.89,939.705 2353.28,939.705C2352.77,939.705 2352.28,939.81 2351.81,940.02C2351.34,940.231 2350.93,940.523 2350.56,940.898C2350.19,941.272 2349.88,941.716 2349.65,942.23C2349.41,942.743 2349.27,943.297 2349.23,943.893L2357.35,943.908Z" style="fill:white;fill-rule:nonzero;"/>
                <path d="M2368.97,954.594L2366.45,954.594L2366.45,931.606L2368.48,930.79L2368.97,930.79L2368.97,954.594Z" style="fill:white;fill-rule:nonzero;"/>
                <path d="M2381.47,954.932C2380.45,954.932 2379.49,954.732 2378.59,954.332C2377.69,953.931 2376.9,953.387 2376.23,952.7C2375.56,952.012 2375.03,951.204 2374.64,950.275C2374.25,949.346 2374.05,948.358 2374.05,947.311C2374.05,946.048 2374.23,944.881 2374.58,943.808C2374.94,942.735 2375.44,941.809 2376.09,941.029C2376.74,940.249 2377.53,939.638 2378.44,939.196C2379.35,938.755 2380.37,938.534 2381.49,938.534C2382.47,938.534 2383.38,938.717 2384.2,939.081C2385.02,939.445 2385.73,939.933 2386.32,940.544C2386.92,941.154 2387.38,941.86 2387.71,942.661C2388.04,943.461 2388.2,944.298 2388.2,945.171L2376.45,945.171C2376.45,946.228 2376.6,947.208 2376.89,948.111C2377.17,949.015 2377.58,949.795 2378.09,950.452C2378.61,951.109 2379.23,951.622 2379.94,951.991C2380.66,952.361 2381.44,952.546 2382.3,952.546C2383.02,952.546 2383.71,952.441 2384.38,952.23C2385.04,952.02 2385.63,951.743 2386.16,951.399C2386.69,951.055 2387.14,950.66 2387.5,950.213C2387.87,949.767 2388.12,949.307 2388.26,948.835L2388.65,949.02C2388.41,949.841 2388.05,950.608 2387.56,951.322C2387.08,952.035 2386.51,952.661 2385.86,953.2C2385.22,953.739 2384.51,954.162 2383.76,954.47C2383.01,954.778 2382.24,954.932 2381.47,954.932ZM2384.58,943.908L2384.89,943.908C2384.89,943.313 2384.78,942.758 2384.55,942.245C2384.33,941.732 2384.02,941.288 2383.62,940.913C2383.23,940.539 2382.76,940.243 2382.23,940.028C2381.69,939.812 2381.12,939.705 2380.52,939.705C2380.01,939.705 2379.52,939.81 2379.05,940.02C2378.58,940.231 2378.16,940.523 2377.79,940.898C2377.42,941.272 2377.12,941.716 2376.89,942.23C2376.65,942.743 2376.51,943.297 2376.47,943.893L2384.58,943.908Z" style="fill:white;fill-rule:nonzero;"/>
                <path d="M2393.68,931.59L2395.7,930.79L2396.21,930.79L2396.21,941.429C2396.61,940.988 2397.05,940.587 2397.53,940.228C2398,939.869 2398.49,939.563 2398.99,939.312C2399.49,939.06 2399.99,938.868 2400.49,938.735C2400.99,938.601 2401.47,938.534 2401.92,938.534C2402.79,938.534 2403.59,938.719 2404.32,939.089C2405.05,939.458 2405.68,939.961 2406.21,940.598C2406.74,941.234 2407.15,941.976 2407.45,942.822C2407.75,943.669 2407.89,944.575 2407.89,945.54C2407.89,946.844 2407.68,948.065 2407.23,949.205C2406.79,950.344 2406.19,951.337 2405.42,952.184C2404.66,953.031 2403.76,953.701 2402.73,954.193C2401.7,954.686 2400.6,954.932 2399.43,954.932C2398.32,954.932 2397.28,954.786 2396.3,954.493C2395.33,954.201 2394.45,953.757 2393.68,953.162L2393.68,931.59ZM2396.21,952.022L2396.3,952.022C2396.5,952.207 2396.71,952.397 2396.95,952.592C2397.18,952.787 2397.45,952.964 2397.75,953.123C2398.05,953.282 2398.39,953.411 2398.77,953.508C2399.16,953.606 2399.6,953.654 2400.09,953.654C2400.86,953.654 2401.56,953.477 2402.2,953.123C2402.84,952.769 2403.38,952.276 2403.83,951.645C2404.28,951.014 2404.63,950.264 2404.88,949.397C2405.12,948.53 2405.25,947.583 2405.25,946.556C2405.25,945.776 2405.12,945.045 2404.86,944.362C2404.61,943.68 2404.26,943.084 2403.82,942.576C2403.37,942.068 2402.85,941.668 2402.25,941.375C2401.65,941.083 2401.01,940.936 2400.34,940.936C2399.95,940.936 2399.55,940.988 2399.14,941.09C2398.74,941.193 2398.35,941.332 2397.99,941.506C2397.62,941.681 2397.29,941.883 2396.99,942.114C2396.7,942.345 2396.45,942.594 2396.27,942.861L2396.21,942.861L2396.21,952.022Z" style="fill:white;fill-rule:nonzero;"/>
                <path d="M2415.01,938.534L2415.07,938.534L2415.49,941.752C2415.88,941.28 2416.29,940.849 2416.72,940.459C2417.16,940.069 2417.61,939.73 2418.07,939.443C2418.52,939.155 2418.99,938.932 2419.47,938.773C2419.94,938.614 2420.41,938.534 2420.88,938.534C2421.29,938.534 2421.69,938.593 2422.09,938.711C2422.49,938.829 2422.87,939.007 2423.23,939.243L2422.37,941.521C2422.1,941.357 2421.87,941.231 2421.66,941.144C2421.45,941.057 2421.26,940.993 2421.06,940.952C2420.87,940.911 2420.66,940.888 2420.44,940.882C2420.23,940.877 2419.98,940.875 2419.7,940.875C2419.25,940.875 2418.81,940.965 2418.38,941.144C2417.95,941.324 2417.55,941.56 2417.18,941.852C2416.81,942.145 2416.48,942.476 2416.19,942.846C2415.91,943.215 2415.67,943.59 2415.49,943.97L2415.49,954.594L2412.98,954.594L2412.98,939.32L2415.01,938.534Z" style="fill:white;fill-rule:nonzero;"/>
                <path d="M2437.47,952.438C2437.47,952.91 2437.62,953.336 2437.9,953.716C2438.19,954.096 2438.55,954.388 2438.98,954.594L2436.24,954.594C2435.88,954.419 2435.58,954.144 2435.33,953.77C2435.07,953.395 2434.95,952.951 2434.95,952.438C2434.64,952.654 2434.3,952.905 2433.92,953.192C2433.55,953.48 2433.13,953.752 2432.67,954.008C2432.21,954.265 2431.69,954.483 2431.13,954.663C2430.57,954.842 2429.94,954.932 2429.25,954.932C2428.68,954.932 2428.16,954.832 2427.7,954.632C2427.25,954.432 2426.86,954.157 2426.54,953.808C2426.22,953.459 2425.98,953.044 2425.8,952.561C2425.63,952.079 2425.54,951.56 2425.54,951.006C2425.54,950.318 2425.67,949.697 2425.93,949.143C2426.2,948.589 2426.55,948.088 2427.01,947.642C2427.47,947.195 2428,946.8 2428.61,946.456C2429.22,946.112 2429.88,945.804 2430.58,945.532C2431.27,945.26 2432,945.022 2432.75,944.816C2433.49,944.611 2434.23,944.421 2434.95,944.247L2434.95,943.431C2434.95,942.712 2434.89,942.107 2434.78,941.614C2434.67,941.121 2434.49,940.723 2434.25,940.421C2434.01,940.118 2433.7,939.902 2433.33,939.774C2432.96,939.646 2432.51,939.581 2431.99,939.581C2431.51,939.581 2431.06,939.669 2430.65,939.843C2430.24,940.018 2429.88,940.251 2429.57,940.544C2429.27,940.836 2429.01,941.18 2428.82,941.575C2428.62,941.97 2428.5,942.389 2428.43,942.83L2426.19,942.83C2426.27,942.153 2426.49,941.547 2426.86,941.013C2427.23,940.48 2427.7,940.03 2428.26,939.666C2428.82,939.302 2429.45,939.022 2430.15,938.827C2430.86,938.632 2431.59,938.534 2432.35,938.534C2433.32,938.534 2434.14,938.634 2434.79,938.835C2435.45,939.035 2435.98,939.314 2436.37,939.674C2436.77,940.033 2437.05,940.472 2437.22,940.99C2437.39,941.509 2437.47,942.081 2437.47,942.707L2437.47,952.438ZM2434.95,945.417C2434.16,945.632 2433.35,945.902 2432.53,946.225C2431.71,946.549 2430.97,946.91 2430.31,947.311C2429.64,947.711 2429.1,948.152 2428.68,948.635C2428.26,949.117 2428.05,949.631 2428.05,950.175C2428.05,950.565 2428.13,950.932 2428.29,951.275C2428.45,951.619 2428.66,951.922 2428.93,952.184C2429.2,952.446 2429.5,952.651 2429.84,952.8C2430.19,952.949 2430.54,953.023 2430.91,953.023C2431.31,953.023 2431.69,952.967 2432.03,952.854C2432.37,952.741 2432.7,952.594 2433.02,952.415C2433.34,952.235 2433.66,952.03 2433.97,951.799C2434.28,951.568 2434.61,951.329 2434.95,951.083L2434.95,945.417Z" style="fill:white;fill-rule:nonzero;"/>
                <path d="M2446.26,933.469L2446.74,933.469L2446.74,938.827L2450.25,938.827L2450.25,940.166L2446.74,940.166L2446.74,951.268C2446.74,951.504 2446.79,951.725 2446.9,951.93C2447,952.135 2447.14,952.315 2447.32,952.469C2447.5,952.623 2447.71,952.743 2447.95,952.831C2448.19,952.918 2448.46,952.961 2448.74,952.961C2449.18,952.961 2449.54,952.89 2449.84,952.746C2450.14,952.602 2450.37,952.428 2450.55,952.222L2451.01,952.53C2450.58,953.269 2450.03,953.854 2449.38,954.286C2448.73,954.717 2447.94,954.932 2447,954.932C2446.53,954.932 2446.12,954.842 2445.77,954.663C2445.42,954.483 2445.14,954.232 2444.91,953.908C2444.68,953.585 2444.51,953.2 2444.4,952.754C2444.29,952.307 2444.23,951.812 2444.23,951.268L2444.23,940.166L2441.49,940.166L2441.49,939.52L2444,938.827L2444.23,938.827L2444.23,934.269L2446.26,933.469Z" style="fill:white;fill-rule:nonzero;"/>
                <path d="M2455.92,939.35L2457.92,938.534L2458.41,938.534L2458.41,954.594L2455.92,954.594L2455.92,939.35ZM2455.67,932.791C2455.67,932.545 2455.71,932.314 2455.79,932.098C2455.87,931.883 2455.97,931.693 2456.1,931.529C2456.24,931.364 2456.39,931.236 2456.57,931.144C2456.75,931.051 2456.95,931.005 2457.15,931.005C2457.36,931.005 2457.55,931.051 2457.73,931.144C2457.91,931.236 2458.06,931.364 2458.2,931.529C2458.33,931.693 2458.44,931.883 2458.51,932.098C2458.59,932.314 2458.63,932.545 2458.63,932.791C2458.63,933.038 2458.59,933.269 2458.51,933.484C2458.44,933.7 2458.33,933.89 2458.2,934.054C2458.06,934.218 2457.91,934.346 2457.73,934.439C2457.55,934.531 2457.36,934.577 2457.15,934.577C2456.95,934.577 2456.75,934.531 2456.57,934.439C2456.39,934.346 2456.24,934.218 2456.1,934.054C2455.97,933.89 2455.87,933.7 2455.79,933.484C2455.71,933.269 2455.67,933.038 2455.67,932.791Z" style="fill:white;fill-rule:nonzero;"/>
                <path d="M2471.75,954.932C2470.59,954.932 2469.52,954.722 2468.54,954.301C2467.56,953.88 2466.71,953.308 2466,952.584C2465.28,951.861 2464.73,951.014 2464.33,950.044C2463.93,949.074 2463.72,948.034 2463.72,946.926C2463.72,945.766 2463.93,944.675 2464.33,943.654C2464.73,942.633 2465.28,941.742 2466,940.983C2466.71,940.223 2467.56,939.625 2468.54,939.189C2469.52,938.753 2470.59,938.534 2471.75,938.534C2472.9,938.534 2473.96,938.735 2474.93,939.135C2475.91,939.535 2476.75,940.084 2477.47,940.782C2478.18,941.48 2478.74,942.299 2479.14,943.238C2479.54,944.177 2479.74,945.186 2479.74,946.264C2479.74,947.454 2479.54,948.576 2479.14,949.628C2478.74,950.68 2478.18,951.599 2477.47,952.384C2476.75,953.169 2475.91,953.79 2474.93,954.247C2473.96,954.704 2472.9,954.932 2471.75,954.932ZM2472.35,953.778C2473,953.778 2473.61,953.618 2474.16,953.3C2474.71,952.982 2475.18,952.553 2475.58,952.015C2475.98,951.476 2476.29,950.852 2476.51,950.144C2476.73,949.436 2476.84,948.686 2476.84,947.896C2476.84,946.756 2476.74,945.689 2476.53,944.693C2476.33,943.698 2475.99,942.83 2475.53,942.091C2475.06,941.352 2474.45,940.77 2473.71,940.344C2472.97,939.918 2472.05,939.705 2470.98,939.705C2470.41,939.705 2469.87,939.856 2469.34,940.159C2468.81,940.462 2468.34,940.875 2467.94,941.398C2467.53,941.922 2467.21,942.535 2466.97,943.238C2466.72,943.941 2466.6,944.688 2466.6,945.478C2466.6,946.628 2466.73,947.706 2466.99,948.712C2467.25,949.718 2467.62,950.595 2468.11,951.345C2468.59,952.094 2469.19,952.687 2469.91,953.123C2470.62,953.559 2471.43,953.778 2472.35,953.778Z" style="fill:white;fill-rule:nonzero;"/>
                <path d="M2486.85,938.534L2487.33,938.534L2487.33,941.598C2488.55,940.531 2489.68,939.753 2490.71,939.266C2491.74,938.778 2492.75,938.534 2493.73,938.534C2494.24,938.534 2494.71,938.658 2495.16,938.904C2495.61,939.15 2495.99,939.489 2496.32,939.92C2496.65,940.351 2496.91,940.857 2497.1,941.437C2497.29,942.017 2497.38,942.635 2497.38,943.292L2497.38,954.594L2494.87,954.594L2494.87,943.831C2494.87,943.307 2494.8,942.848 2494.67,942.453C2494.53,942.058 2494.33,941.727 2494.08,941.46C2493.83,941.193 2493.53,940.99 2493.19,940.852C2492.84,940.713 2492.47,940.644 2492.06,940.644C2491.7,940.644 2491.32,940.713 2490.92,940.852C2490.52,940.99 2490.11,941.175 2489.71,941.406C2489.3,941.637 2488.9,941.906 2488.49,942.214C2488.09,942.522 2487.7,942.846 2487.33,943.184L2487.33,954.594L2484.8,954.594L2484.8,939.335L2486.85,938.534Z" style="fill:white;fill-rule:nonzero;"/>
            </g>
        </g>
        <g transform="matrix(1,0,0,0.916667,0,75)">
            <g transform="matrix(0.791191,0,0,0.863117,4977.23,737.841)">
                <path d="M1430.73,1604.88C1434,1604.88 1437.22,1604.46 1440.4,1603.63C1443.58,1602.79 1446.42,1601.56 1448.92,1599.92C1451.42,1598.29 1453.44,1596.28 1454.98,1593.91C1456.52,1591.53 1457.3,1588.77 1457.3,1585.62C1457.3,1582.23 1456.4,1579.14 1454.61,1576.37C1452.82,1573.59 1450.44,1571.01 1447.48,1568.63C1444.52,1566.26 1441.11,1564.01 1437.25,1561.88C1433.4,1559.75 1429.43,1557.63 1425.36,1555.54C1421.04,1553.31 1416.76,1551.02 1412.54,1548.64C1408.31,1546.26 1404.51,1543.58 1401.15,1540.59C1397.79,1537.59 1395.07,1534.2 1393,1530.4C1390.94,1526.61 1389.9,1522.18 1389.9,1517.12C1389.9,1512.43 1390.74,1508.08 1392.4,1504.07C1394.07,1500.05 1396.52,1496.58 1399.76,1493.65C1403,1490.72 1407,1488.42 1411.75,1486.76C1416.5,1485.09 1421.93,1484.26 1428.04,1484.26C1433.54,1484.26 1438.46,1484.87 1442.81,1486.11C1447.16,1487.34 1450.99,1489.18 1454.29,1491.62C1457.59,1494.05 1460.41,1497.06 1462.76,1500.64C1465.1,1504.22 1467.05,1508.36 1468.59,1513.05L1461.18,1516.47C1460.01,1512.89 1458.45,1509.61 1456.51,1506.61C1454.57,1503.62 1452.2,1501.06 1449.43,1498.93C1446.65,1496.8 1443.41,1495.15 1439.71,1493.98C1436,1492.8 1431.81,1492.22 1427.12,1492.22C1422.92,1492.22 1419.25,1492.76 1416.1,1493.84C1412.95,1494.92 1410.35,1496.34 1408.28,1498.1C1406.21,1499.85 1404.65,1501.83 1403.6,1504.02C1402.55,1506.21 1402.03,1508.45 1402.03,1510.73C1402.03,1513.51 1402.94,1516.15 1404.76,1518.65C1406.58,1521.14 1408.99,1523.54 1411.98,1525.82C1414.98,1528.1 1418.38,1530.31 1422.21,1532.44C1426.04,1534.57 1429.96,1536.68 1433.97,1538.78C1438.41,1541.06 1442.85,1543.49 1447.3,1546.05C1451.74,1548.61 1455.75,1551.45 1459.33,1554.56C1462.91,1557.68 1465.83,1561.11 1468.08,1564.84C1470.33,1568.57 1471.46,1572.75 1471.46,1577.38C1471.46,1582.26 1470.56,1586.84 1468.77,1591.13C1466.99,1595.42 1464.33,1599.15 1460.81,1602.33C1457.3,1605.51 1452.9,1608.02 1447.62,1609.88C1442.35,1611.73 1436.22,1612.65 1429.25,1612.65C1423.69,1612.65 1418.69,1612.01 1414.25,1610.71C1409.81,1609.41 1405.87,1607.52 1402.45,1605.02C1399.02,1602.52 1396.09,1599.46 1393.65,1595.85C1391.21,1592.24 1389.16,1588.12 1387.5,1583.49L1395.37,1580.25C1396.6,1584.14 1398.34,1587.6 1400.6,1590.62C1402.85,1593.64 1405.49,1596.22 1408.51,1598.35C1411.53,1600.48 1414.93,1602.1 1418.69,1603.21C1422.46,1604.32 1426.47,1604.88 1430.73,1604.88Z" style="fill:white;fill-rule:nonzero;"/>
                <path d="M1542.09,1611.82C1535.92,1611.82 1530.13,1610.62 1524.73,1608.21C1519.33,1605.8 1514.61,1602.53 1510.57,1598.4C1506.53,1594.26 1503.34,1589.4 1500.99,1583.82C1498.64,1578.23 1497.47,1572.29 1497.47,1566C1497.47,1558.41 1498.54,1551.39 1500.66,1544.94C1502.8,1538.49 1505.82,1532.92 1509.74,1528.23C1513.66,1523.54 1518.36,1519.87 1523.86,1517.21C1529.35,1514.56 1535.46,1513.23 1542.18,1513.23C1548.11,1513.23 1553.54,1514.33 1558.48,1516.52C1563.41,1518.71 1567.67,1521.64 1571.25,1525.31C1574.83,1528.98 1577.61,1533.23 1579.58,1538.04C1581.56,1542.85 1582.55,1547.88 1582.55,1553.13L1511.91,1553.13C1511.91,1559.49 1512.78,1565.38 1514.51,1570.81C1516.23,1576.24 1518.65,1580.93 1521.77,1584.88C1524.89,1588.83 1528.59,1591.92 1532.88,1594.14C1537.17,1596.36 1541.91,1597.47 1547.09,1597.47C1551.41,1597.47 1555.56,1596.84 1559.54,1595.57C1563.52,1594.31 1567.1,1592.64 1570.28,1590.57C1573.46,1588.51 1576.14,1586.13 1578.33,1583.45C1580.52,1580.76 1582.05,1578 1582.92,1575.16L1585.23,1576.27C1583.81,1581.21 1581.63,1585.82 1578.7,1590.11C1575.77,1594.4 1572.36,1598.16 1568.48,1601.4C1564.59,1604.64 1560.38,1607.19 1555.84,1609.04C1551.3,1610.89 1546.72,1611.82 1542.09,1611.82ZM1560.79,1545.54L1562.64,1545.54C1562.64,1541.96 1561.96,1538.63 1560.61,1535.54C1559.25,1532.45 1557.38,1529.79 1555.01,1527.53C1552.63,1525.28 1549.84,1523.51 1546.63,1522.21C1543.42,1520.91 1539.99,1520.27 1536.35,1520.27C1533.27,1520.27 1530.32,1520.9 1527.51,1522.16C1524.7,1523.43 1522.19,1525.19 1519.97,1527.44C1517.75,1529.69 1515.92,1532.36 1514.51,1535.45C1513.09,1538.53 1512.25,1541.87 1512.01,1545.45L1560.79,1545.54Z" style="fill:white;fill-rule:nonzero;"/>
                <path d="M1627.81,1513.23L1630.68,1513.23L1630.68,1532.95C1633.09,1530.17 1635.64,1527.6 1638.32,1525.22C1641.01,1522.84 1643.84,1520.76 1646.84,1518.97C1649.83,1517.18 1653.01,1515.78 1656.37,1514.76C1659.74,1513.74 1663.27,1513.23 1666.97,1513.23C1672.28,1513.23 1677.11,1514.37 1681.46,1516.66C1685.81,1518.94 1689.51,1522.06 1692.57,1526.01C1695.62,1529.95 1697.98,1534.6 1699.65,1539.94C1701.32,1545.28 1702.15,1551 1702.15,1557.11C1702.15,1565.13 1701.13,1572.51 1699.09,1579.23C1697.06,1585.96 1694.13,1591.78 1690.3,1596.68C1686.47,1601.59 1681.83,1605.42 1676.37,1608.16C1670.91,1610.91 1664.75,1612.28 1657.9,1612.28C1655.49,1612.28 1653.16,1612.11 1650.91,1611.77C1648.66,1611.43 1646.44,1610.89 1644.25,1610.15C1642.05,1609.41 1639.85,1608.42 1637.63,1607.19C1635.4,1605.96 1633.09,1604.44 1630.68,1602.65L1630.68,1649.68L1615.5,1649.68L1615.5,1518.04L1627.81,1513.23ZM1630.68,1584.23C1630.68,1586.45 1631.35,1588.79 1632.67,1591.22C1634,1593.66 1635.85,1595.88 1638.23,1597.89C1640.6,1599.89 1643.44,1601.56 1646.74,1602.89C1650.05,1604.21 1653.7,1604.88 1657.71,1604.88C1661.48,1604.88 1665.03,1604 1668.36,1602.24C1671.69,1600.48 1674.61,1598.01 1677.11,1594.83C1679.61,1591.65 1681.57,1587.8 1682.99,1583.26C1684.41,1578.73 1685.12,1573.68 1685.12,1568.13C1685.12,1561.15 1684.45,1555.03 1683.12,1549.75C1681.8,1544.47 1679.96,1540.08 1677.62,1536.56C1675.27,1533.04 1672.48,1530.39 1669.24,1528.6C1666,1526.81 1662.47,1525.91 1658.64,1525.91C1655.62,1525.91 1652.76,1526.42 1650.08,1527.44C1647.39,1528.46 1644.88,1529.79 1642.53,1531.42C1640.19,1533.06 1638.01,1534.89 1636.01,1536.93C1634,1538.97 1632.23,1541 1630.68,1543.04L1630.68,1584.23Z" style="fill:white;fill-rule:nonzero;"/>
                <path d="M1751.58,1482.77L1754.45,1482.77L1754.45,1514.99L1775.56,1514.99L1775.56,1523.04L1754.45,1523.04L1754.45,1589.79C1754.45,1591.21 1754.76,1592.53 1755.38,1593.77C1756,1595 1756.84,1596.08 1757.92,1597.01C1759,1597.93 1760.27,1598.66 1761.72,1599.18C1763.17,1599.71 1764.76,1599.97 1766.49,1599.97C1769.08,1599.97 1771.27,1599.54 1773.06,1598.67C1774.85,1597.81 1776.27,1596.76 1777.32,1595.53L1780.09,1597.38C1777.5,1601.82 1774.25,1605.34 1770.33,1607.93C1766.41,1610.52 1761.64,1611.82 1756.03,1611.82C1753.19,1611.82 1750.72,1611.28 1748.62,1610.2C1746.52,1609.12 1744.79,1607.61 1743.44,1605.66C1742.08,1603.72 1741.06,1601.4 1740.38,1598.72C1739.7,1596.04 1739.36,1593.06 1739.36,1589.79L1739.36,1523.04L1722.88,1523.04L1722.88,1519.15L1737.97,1514.99L1739.36,1514.99L1739.36,1487.59L1751.58,1482.77Z" style="fill:white;fill-rule:nonzero;"/>
                <path d="M1846.38,1611.82C1840.2,1611.82 1834.42,1610.62 1829.02,1608.21C1823.62,1605.8 1818.9,1602.53 1814.86,1598.4C1810.81,1594.26 1807.62,1589.4 1805.27,1583.82C1802.93,1578.23 1801.76,1572.29 1801.76,1566C1801.76,1558.41 1802.82,1551.39 1804.95,1544.94C1807.08,1538.49 1810.1,1532.92 1814.02,1528.23C1817.94,1523.54 1822.65,1519.87 1828.14,1517.21C1833.63,1514.56 1839.74,1513.23 1846.47,1513.23C1852.39,1513.23 1857.82,1514.33 1862.76,1516.52C1867.7,1518.71 1871.96,1521.64 1875.54,1525.31C1879.12,1528.98 1881.89,1533.23 1883.87,1538.04C1885.84,1542.85 1886.83,1547.88 1886.83,1553.13L1816.2,1553.13C1816.2,1559.49 1817.06,1565.38 1818.79,1570.81C1820.52,1576.24 1822.94,1580.93 1826.06,1584.88C1829.17,1588.83 1832.88,1591.92 1837.16,1594.14C1841.45,1596.36 1846.19,1597.47 1851.38,1597.47C1855.69,1597.47 1859.85,1596.84 1863.83,1595.57C1867.81,1594.31 1871.39,1592.64 1874.56,1590.57C1877.74,1588.51 1880.43,1586.13 1882.62,1583.45C1884.81,1580.76 1886.34,1578 1887.2,1575.16L1889.52,1576.27C1888.1,1581.21 1885.92,1585.82 1882.99,1590.11C1880.06,1594.4 1876.65,1598.16 1872.76,1601.4C1868.87,1604.64 1864.66,1607.19 1860.12,1609.04C1855.59,1610.89 1851.01,1611.82 1846.38,1611.82ZM1865.08,1545.54L1866.93,1545.54C1866.93,1541.96 1866.25,1538.63 1864.89,1535.54C1863.53,1532.45 1861.67,1529.79 1859.29,1527.53C1856.91,1525.28 1854.12,1523.51 1850.91,1522.21C1847.7,1520.91 1844.28,1520.27 1840.64,1520.27C1837.55,1520.27 1834.6,1520.9 1831.8,1522.16C1828.99,1523.43 1826.47,1525.19 1824.25,1527.44C1822.03,1529.69 1820.21,1532.36 1818.79,1535.45C1817.37,1538.53 1816.54,1541.87 1816.29,1545.45L1865.08,1545.54Z" style="fill:white;fill-rule:nonzero;"/>
                <path d="M1932.1,1513.23L1934.97,1513.23L1934.97,1532.86C1938.18,1530.26 1941.48,1527.78 1944.87,1525.4C1948.27,1523.03 1951.62,1520.93 1954.92,1519.11C1958.22,1517.29 1961.41,1515.85 1964.5,1514.8C1967.58,1513.76 1970.45,1513.23 1973.11,1513.23C1975.7,1513.23 1978.32,1513.69 1980.98,1514.62C1983.63,1515.55 1986.11,1516.84 1988.43,1518.51C1990.74,1520.17 1992.75,1522.19 1994.44,1524.57C1996.14,1526.95 1997.27,1529.59 1997.82,1532.49C1999.92,1530.51 2002.42,1528.4 2005.32,1526.14C2008.22,1523.89 2011.32,1521.81 2014.63,1519.9C2017.93,1517.98 2021.34,1516.39 2024.86,1515.13C2028.37,1513.86 2031.83,1513.23 2035.22,1513.23C2038.56,1513.23 2041.73,1514.02 2044.76,1515.59C2047.78,1517.16 2050.45,1519.29 2052.77,1521.98C2055.08,1524.66 2056.93,1527.81 2058.32,1531.42C2059.71,1535.03 2060.4,1538.87 2060.4,1542.95L2060.4,1609.78L2045.31,1609.78L2045.31,1545.54C2045.31,1542.88 2044.8,1540.37 2043.79,1537.99C2042.77,1535.62 2041.41,1533.54 2039.71,1531.75C2038.02,1529.95 2036.03,1528.54 2033.74,1527.49C2031.46,1526.44 2029.05,1525.91 2026.52,1525.91C2024.05,1525.91 2021.43,1526.55 2018.65,1527.81C2015.88,1529.08 2013.19,1530.62 2010.6,1532.44C2008.01,1534.26 2005.59,1536.16 2003.33,1538.13C2001.08,1540.11 1999.24,1541.84 1997.82,1543.32L1997.82,1609.78L1982.74,1609.78L1982.74,1545.54C1982.74,1542.88 1982.3,1540.37 1981.44,1537.99C1980.58,1535.62 1979.36,1533.54 1977.78,1531.75C1976.21,1529.95 1974.3,1528.54 1972.04,1527.49C1969.79,1526.44 1967.28,1525.91 1964.5,1525.91C1962.22,1525.91 1959.65,1526.55 1956.82,1527.81C1953.98,1529.08 1951.17,1530.59 1948.39,1532.35C1945.61,1534.11 1943.02,1535.93 1940.61,1537.81C1938.21,1539.69 1936.33,1541.28 1934.97,1542.58L1934.97,1609.78L1919.79,1609.78L1919.79,1518.04L1932.1,1513.23Z" style="fill:white;fill-rule:nonzero;"/>
                <path d="M2097.43,1471.48L2109.56,1466.67L2112.61,1466.67L2112.61,1530.63C2115.02,1527.98 2117.66,1525.57 2120.53,1523.41C2123.4,1521.25 2126.33,1519.42 2129.32,1517.9C2132.32,1516.39 2135.32,1515.24 2138.35,1514.43C2141.37,1513.63 2144.24,1513.23 2146.96,1513.23C2152.2,1513.23 2157.02,1514.34 2161.4,1516.56C2165.78,1518.79 2169.56,1521.81 2172.74,1525.63C2175.92,1529.46 2178.4,1533.92 2180.19,1539.01C2181.98,1544.1 2182.88,1549.55 2182.88,1555.35C2182.88,1563.19 2181.55,1570.53 2178.89,1577.38C2176.24,1584.23 2172.62,1590.2 2168.02,1595.3C2163.42,1600.39 2158.02,1604.41 2151.82,1607.38C2145.62,1610.34 2139,1611.82 2131.96,1611.82C2125.3,1611.82 2119.03,1610.94 2113.17,1609.18C2107.31,1607.42 2102.06,1604.75 2097.43,1601.17L2097.43,1471.48ZM2112.61,1594.32L2113.17,1594.32C2114.34,1595.43 2115.64,1596.58 2117.06,1597.75C2118.48,1598.92 2120.08,1599.99 2121.87,1600.94C2123.66,1601.9 2125.71,1602.67 2128.03,1603.26C2130.34,1603.84 2132.98,1604.14 2135.94,1604.14C2140.57,1604.14 2144.8,1603.07 2148.62,1600.94C2152.45,1598.81 2155.72,1595.85 2158.44,1592.06C2161.15,1588.26 2163.25,1583.76 2164.73,1578.54C2166.21,1573.33 2166.95,1567.63 2166.95,1561.46C2166.95,1556.77 2166.18,1552.37 2164.64,1548.27C2163.1,1544.16 2161,1540.59 2158.34,1537.53C2155.69,1534.48 2152.56,1532.07 2148.95,1530.31C2145.34,1528.55 2141.5,1527.67 2137.42,1527.67C2135.08,1527.67 2132.69,1527.98 2130.25,1528.6C2127.81,1529.22 2125.5,1530.05 2123.31,1531.1C2121.12,1532.15 2119.12,1533.37 2117.34,1534.75C2115.55,1536.14 2114.1,1537.64 2112.98,1539.24L2112.61,1539.24L2112.61,1594.32Z" style="fill:white;fill-rule:nonzero;"/>
                <path d="M2251.66,1611.82C2245.49,1611.82 2239.7,1610.62 2234.3,1608.21C2228.9,1605.8 2224.18,1602.53 2220.14,1598.4C2216.09,1594.26 2212.9,1589.4 2210.55,1583.82C2208.21,1578.23 2207.04,1572.29 2207.04,1566C2207.04,1558.41 2208.1,1551.39 2210.23,1544.94C2212.36,1538.49 2215.38,1532.92 2219.3,1528.23C2223.22,1523.54 2227.93,1519.87 2233.42,1517.21C2238.91,1514.56 2245.02,1513.23 2251.75,1513.23C2257.67,1513.23 2263.11,1514.33 2268.04,1516.52C2272.98,1518.71 2277.24,1521.64 2280.82,1525.31C2284.4,1528.98 2287.17,1533.23 2289.15,1538.04C2291.12,1542.85 2292.11,1547.88 2292.11,1553.13L2221.48,1553.13C2221.48,1559.49 2222.34,1565.38 2224.07,1570.81C2225.8,1576.24 2228.22,1580.93 2231.34,1584.88C2234.45,1588.83 2238.16,1591.92 2242.45,1594.14C2246.74,1596.36 2251.47,1597.47 2256.66,1597.47C2260.98,1597.47 2265.13,1596.84 2269.11,1595.57C2273.09,1594.31 2276.67,1592.64 2279.85,1590.57C2283.02,1588.51 2285.71,1586.13 2287.9,1583.45C2290.09,1580.76 2291.62,1578 2292.48,1575.16L2294.8,1576.27C2293.38,1581.21 2291.2,1585.82 2288.27,1590.11C2285.34,1594.4 2281.93,1598.16 2278.04,1601.4C2274.15,1604.64 2269.94,1607.19 2265.4,1609.04C2260.87,1610.89 2256.28,1611.82 2251.66,1611.82ZM2270.36,1545.54L2272.21,1545.54C2272.21,1541.96 2271.53,1538.63 2270.17,1535.54C2268.81,1532.45 2266.95,1529.79 2264.57,1527.53C2262.2,1525.28 2259.4,1523.51 2256.19,1522.21C2252.98,1520.91 2249.56,1520.27 2245.92,1520.27C2242.83,1520.27 2239.89,1520.9 2237.08,1522.16C2234.27,1523.43 2231.75,1525.19 2229.53,1527.44C2227.31,1529.69 2225.49,1532.36 2224.07,1535.45C2222.65,1538.53 2221.82,1541.87 2221.57,1545.45L2270.36,1545.54Z" style="fill:white;fill-rule:nonzero;"/>
                <path d="M2337.29,1513.23L2337.66,1513.23L2340.16,1532.58C2342.5,1529.74 2344.99,1527.15 2347.61,1524.8C2350.23,1522.46 2352.91,1520.42 2355.66,1518.69C2358.41,1516.96 2361.22,1515.62 2364.09,1514.66C2366.95,1513.71 2369.78,1513.23 2372.56,1513.23C2375.03,1513.23 2377.46,1513.59 2379.87,1514.3C2382.28,1515.01 2384.56,1516.07 2386.72,1517.49L2381.53,1531.19C2379.93,1530.2 2378.51,1529.45 2377.28,1528.92C2376.04,1528.4 2374.84,1528.01 2373.67,1527.76C2372.49,1527.52 2371.26,1527.38 2369.96,1527.35C2368.67,1527.32 2367.19,1527.3 2365.52,1527.3C2362.8,1527.3 2360.15,1527.84 2357.56,1528.92C2354.97,1530 2352.56,1531.42 2350.34,1533.18C2348.12,1534.94 2346.14,1536.93 2344.41,1539.15C2342.69,1541.37 2341.27,1543.62 2340.16,1545.91L2340.16,1609.78L2325.07,1609.78L2325.07,1517.95L2337.29,1513.23Z" style="fill:white;fill-rule:nonzero;"/>
                <path d="M2439.67,1519.34C2440.97,1513.72 2442.82,1508.73 2445.22,1504.34C2447.63,1499.96 2450.49,1496.29 2453.79,1493.33C2457.09,1490.37 2460.78,1488.11 2464.85,1486.57C2468.92,1485.03 2473.27,1484.26 2477.9,1484.26C2483.95,1484.26 2489.26,1485.17 2493.83,1486.99C2498.39,1488.81 2502.22,1491.26 2505.3,1494.35C2508.39,1497.43 2510.7,1501.03 2512.25,1505.13C2513.79,1509.23 2514.56,1513.54 2514.56,1518.04C2514.56,1521.25 2514.16,1524.46 2513.36,1527.67C2512.56,1530.88 2511.24,1534.24 2509.42,1537.76C2507.6,1541.28 2505.23,1545.01 2502.3,1548.96C2499.36,1552.91 2495.8,1557.23 2491.6,1561.92C2487.41,1566.61 2482.5,1571.75 2476.89,1577.34C2471.27,1582.92 2464.88,1589.08 2457.72,1595.81L2521.23,1595.81L2512.16,1609.78L2437.17,1609.78L2437.17,1604.78C2446.24,1596.14 2454.11,1588.57 2460.78,1582.06C2467.44,1575.55 2473.11,1569.81 2477.76,1564.84C2482.42,1559.87 2486.2,1555.57 2489.1,1551.93C2492.01,1548.28 2494.26,1545.01 2495.86,1542.11C2497.47,1539.21 2498.56,1536.57 2499.15,1534.2C2499.74,1531.82 2500.03,1529.4 2500.03,1526.93C2500.03,1523.29 2499.43,1519.76 2498.22,1516.33C2497.02,1512.91 2495.21,1509.88 2492.81,1507.26C2490.4,1504.64 2487.41,1502.54 2483.83,1500.96C2480.25,1499.39 2476.11,1498.6 2471.42,1498.6C2467.91,1498.6 2464.63,1499.22 2461.61,1500.45C2458.59,1501.69 2455.89,1503.34 2453.51,1505.41C2451.13,1507.48 2449.13,1509.85 2447.49,1512.54C2445.86,1515.22 2444.67,1517.98 2443.93,1520.82L2439.67,1519.34Z" style="fill:white;fill-rule:nonzero;"/>
                <path d="M2583.25,1612.65C2576.71,1612.65 2570.77,1611.05 2565.43,1607.84C2560.09,1604.63 2555.53,1600.16 2551.73,1594.42C2547.93,1588.68 2544.99,1581.83 2542.89,1573.87C2540.79,1565.9 2539.74,1557.2 2539.74,1547.76C2539.74,1539.06 2540.79,1530.85 2542.89,1523.14C2544.99,1515.42 2547.93,1508.68 2551.73,1502.91C2555.53,1497.14 2560.09,1492.59 2565.43,1489.25C2570.77,1485.92 2576.71,1484.26 2583.25,1484.26C2589.73,1484.26 2595.64,1485.92 2600.98,1489.25C2606.32,1492.59 2610.88,1497.14 2614.68,1502.91C2618.47,1508.68 2621.42,1515.42 2623.52,1523.14C2625.62,1530.85 2626.67,1539.06 2626.67,1547.76C2626.67,1557.2 2625.62,1565.9 2623.52,1573.87C2621.42,1581.83 2618.47,1588.68 2614.68,1594.42C2610.88,1600.16 2606.32,1604.63 2600.98,1607.84C2595.64,1611.05 2589.73,1612.65 2583.25,1612.65ZM2583.25,1606.54C2587.69,1606.54 2591.57,1604.94 2594.87,1601.73C2598.17,1598.52 2600.93,1594.2 2603.15,1588.77C2605.38,1583.34 2607.03,1577.09 2608.11,1570.02C2609.19,1562.96 2609.73,1555.54 2609.73,1547.76C2609.73,1539.98 2609.19,1532.61 2608.11,1525.63C2607.03,1518.66 2605.38,1512.57 2603.15,1507.35C2600.93,1502.14 2598.17,1497.99 2594.87,1494.9C2591.57,1491.82 2587.69,1490.27 2583.25,1490.27C2578.74,1490.27 2574.84,1491.82 2571.54,1494.9C2568.24,1497.99 2565.49,1502.14 2563.3,1507.35C2561.11,1512.57 2559.47,1518.66 2558.39,1525.63C2557.31,1532.61 2556.77,1539.98 2556.77,1547.76C2556.77,1555.54 2557.31,1562.96 2558.39,1570.02C2559.47,1577.09 2561.11,1583.34 2563.3,1588.77C2565.49,1594.2 2568.24,1598.52 2571.54,1601.73C2574.84,1604.94 2578.74,1606.54 2583.25,1606.54Z" style="fill:white;fill-rule:nonzero;"/>
                <rect x="2678.51" y="1560.16" width="45.083" height="10.831" style="fill:white;fill-rule:nonzero;"/>
                <path d="M2779.41,1519.34C2780.71,1513.72 2782.56,1508.73 2784.97,1504.34C2787.37,1499.96 2790.23,1496.29 2793.53,1493.33C2796.83,1490.37 2800.52,1488.11 2804.59,1486.57C2808.66,1485.03 2813.01,1484.26 2817.64,1484.26C2823.69,1484.26 2829,1485.17 2833.57,1486.99C2838.13,1488.81 2841.96,1491.26 2845.04,1494.35C2848.13,1497.43 2850.44,1501.03 2851.99,1505.13C2853.53,1509.23 2854.3,1513.54 2854.3,1518.04C2854.3,1521.25 2853.9,1524.46 2853.1,1527.67C2852.3,1530.88 2850.98,1534.24 2849.16,1537.76C2847.34,1541.28 2844.97,1545.01 2842.03,1548.96C2839.1,1552.91 2835.54,1557.23 2831.34,1561.92C2827.15,1566.61 2822.24,1571.75 2816.62,1577.34C2811.01,1582.92 2804.62,1589.08 2797.46,1595.81L2860.97,1595.81L2851.89,1609.78L2776.91,1609.78L2776.91,1604.78C2785.98,1596.14 2793.85,1588.57 2800.52,1582.06C2807.18,1575.55 2812.84,1569.81 2817.5,1564.84C2822.16,1559.87 2825.94,1555.57 2828.84,1551.93C2831.74,1548.28 2834,1545.01 2835.6,1542.11C2837.21,1539.21 2838.3,1536.57 2838.89,1534.2C2839.47,1531.82 2839.77,1529.4 2839.77,1526.93C2839.77,1523.29 2839.17,1519.76 2837.96,1516.33C2836.76,1512.91 2834.95,1509.88 2832.55,1507.26C2830.14,1504.64 2827.15,1502.54 2823.57,1500.96C2819.99,1499.39 2815.85,1498.6 2811.16,1498.6C2807.64,1498.6 2804.37,1499.22 2801.35,1500.45C2798.33,1501.69 2795.63,1503.34 2793.25,1505.41C2790.87,1507.48 2788.87,1509.85 2787.23,1512.54C2785.6,1515.22 2784.41,1517.98 2783.67,1520.82L2779.41,1519.34Z" style="fill:white;fill-rule:nonzero;"/>
                <path d="M2883.28,1519.34C2884.57,1513.72 2886.42,1508.73 2888.83,1504.34C2891.24,1499.96 2894.09,1496.29 2897.39,1493.33C2900.7,1490.37 2904.38,1488.11 2908.46,1486.57C2912.53,1485.03 2916.88,1484.26 2921.51,1484.26C2927.56,1484.26 2932.86,1485.17 2937.43,1486.99C2942,1488.81 2945.82,1491.26 2948.91,1494.35C2952,1497.43 2954.31,1501.03 2955.85,1505.13C2957.4,1509.23 2958.17,1513.54 2958.17,1518.04C2958.17,1521.25 2957.77,1524.46 2956.96,1527.67C2956.16,1530.88 2954.85,1534.24 2953.03,1537.76C2951.21,1541.28 2948.83,1545.01 2945.9,1548.96C2942.97,1552.91 2939.41,1557.23 2935.21,1561.92C2931.01,1566.61 2926.11,1571.75 2920.49,1577.34C2914.87,1582.92 2908.49,1589.08 2901.33,1595.81L2964.83,1595.81L2955.76,1609.78L2880.78,1609.78L2880.78,1604.78C2889.85,1596.14 2897.72,1588.57 2904.38,1582.06C2911.05,1575.55 2916.71,1569.81 2921.37,1564.84C2926.03,1559.87 2929.81,1555.57 2932.71,1551.93C2935.61,1548.28 2937.86,1545.01 2939.47,1542.11C2941.07,1539.21 2942.17,1536.57 2942.75,1534.2C2943.34,1531.82 2943.63,1529.4 2943.63,1526.93C2943.63,1523.29 2943.03,1519.76 2941.83,1516.33C2940.62,1512.91 2938.82,1509.88 2936.41,1507.26C2934.01,1504.64 2931.01,1502.54 2927.43,1500.96C2923.85,1499.39 2919.72,1498.6 2915.03,1498.6C2911.51,1498.6 2908.24,1499.22 2905.22,1500.45C2902.19,1501.69 2899.49,1503.34 2897.12,1505.41C2894.74,1507.48 2892.73,1509.85 2891.1,1512.54C2889.46,1515.22 2888.28,1517.98 2887.53,1520.82L2883.28,1519.34Z" style="fill:white;fill-rule:nonzero;"/>
                <path d="M2982.79,1635.89C2985.57,1635.09 2988.19,1633.96 2990.66,1632.51C2993.13,1631.06 2995.26,1629.41 2997.05,1627.56C2998.84,1625.71 3000.26,1623.68 3001.31,1621.49C3002.36,1619.3 3002.88,1617.07 3002.88,1614.78C3002.88,1613.49 3002.62,1612.33 3002.09,1611.31C3001.57,1610.29 3000.91,1609.78 3000.1,1609.78C2999.3,1609.78 2998.64,1609.94 2998.11,1610.25C2997.59,1610.56 2997.06,1610.88 2996.54,1611.22C2996.01,1611.56 2995.4,1611.88 2994.69,1612.19C2993.98,1612.5 2993.04,1612.65 2991.86,1612.65C2990.63,1612.65 2989.47,1612.39 2988.39,1611.87C2987.31,1611.34 2986.36,1610.6 2985.52,1609.64C2984.69,1608.69 2984.03,1607.58 2983.53,1606.31C2983.04,1605.05 2982.79,1603.67 2982.79,1602.19C2982.79,1600.59 2983.12,1599.11 2983.76,1597.75C2984.41,1596.39 2985.31,1595.2 2986.45,1594.18C2987.59,1593.17 2988.93,1592.38 2990.47,1591.82C2992.02,1591.27 2993.65,1590.99 2995.38,1590.99C2997.66,1590.99 2999.79,1591.5 3001.77,1592.52C3003.74,1593.54 3005.47,1594.92 3006.95,1596.68C3008.43,1598.44 3009.59,1600.48 3010.42,1602.79C3011.26,1605.11 3011.67,1607.59 3011.67,1610.25C3011.67,1614.44 3010.89,1618.3 3009.31,1621.82C3007.74,1625.34 3005.64,1628.41 3003.02,1631.03C3000.39,1633.65 2997.34,1635.77 2993.85,1637.37C2990.37,1638.97 2986.68,1639.9 2982.79,1640.15L2982.79,1635.89Z" style="fill:white;fill-rule:nonzero;"/>
            </g>
        </g>
        <g transform="matrix(1,0,0,0.916667,0,75)">
            <g transform="matrix(0.791191,0,0,0.863117,6327.98,737.841)">
                <path d="M1386.2,1519.34C1387.5,1513.72 1389.35,1508.73 1391.75,1504.34C1394.16,1499.96 1397.02,1496.29 1400.32,1493.33C1403.62,1490.37 1407.31,1488.11 1411.38,1486.57C1415.45,1485.03 1419.8,1484.26 1424.43,1484.26C1430.48,1484.26 1435.79,1485.17 1440.36,1486.99C1444.92,1488.81 1448.75,1491.26 1451.83,1494.35C1454.92,1497.43 1457.23,1501.03 1458.78,1505.13C1460.32,1509.23 1461.09,1513.54 1461.09,1518.04C1461.09,1521.25 1460.69,1524.46 1459.89,1527.67C1459.09,1530.88 1457.77,1534.24 1455.95,1537.76C1454.13,1541.28 1451.76,1545.01 1448.83,1548.96C1445.89,1552.91 1442.33,1557.23 1438.13,1561.92C1433.94,1566.61 1429.03,1571.75 1423.41,1577.34C1417.8,1582.92 1411.41,1589.08 1404.25,1595.81L1467.76,1595.81L1458.68,1609.78L1383.7,1609.78L1383.7,1604.78C1392.77,1596.14 1400.64,1588.57 1407.31,1582.06C1413.97,1575.55 1419.63,1569.81 1424.29,1564.84C1428.95,1559.87 1432.73,1555.57 1435.63,1551.93C1438.53,1548.28 1440.79,1545.01 1442.39,1542.11C1444,1539.21 1445.09,1536.57 1445.68,1534.2C1446.26,1531.82 1446.56,1529.4 1446.56,1526.93C1446.56,1523.29 1445.95,1519.76 1444.75,1516.33C1443.55,1512.91 1441.74,1509.88 1439.34,1507.26C1436.93,1504.64 1433.94,1502.54 1430.36,1500.96C1426.78,1499.39 1422.64,1498.6 1417.95,1498.6C1414.43,1498.6 1411.16,1499.22 1408.14,1500.45C1405.12,1501.69 1402.42,1503.34 1400.04,1505.41C1397.66,1507.48 1395.66,1509.85 1394.02,1512.54C1392.39,1515.22 1391.2,1517.98 1390.46,1520.82L1386.2,1519.34Z" style="fill:white;fill-rule:nonzero;"/>
                <path d="M1529.78,1612.65C1523.24,1612.65 1517.3,1611.05 1511.96,1607.84C1506.62,1604.63 1502.05,1600.16 1498.26,1594.42C1494.46,1588.68 1491.52,1581.83 1489.42,1573.87C1487.32,1565.9 1486.27,1557.2 1486.27,1547.76C1486.27,1539.06 1487.32,1530.85 1489.42,1523.14C1491.52,1515.42 1494.46,1508.68 1498.26,1502.91C1502.05,1497.14 1506.62,1492.59 1511.96,1489.25C1517.3,1485.92 1523.24,1484.26 1529.78,1484.26C1536.26,1484.26 1542.17,1485.92 1547.51,1489.25C1552.85,1492.59 1557.41,1497.14 1561.21,1502.91C1565,1508.68 1567.95,1515.42 1570.05,1523.14C1572.15,1530.85 1573.2,1539.06 1573.2,1547.76C1573.2,1557.2 1572.15,1565.9 1570.05,1573.87C1567.95,1581.83 1565,1588.68 1561.21,1594.42C1557.41,1600.16 1552.85,1604.63 1547.51,1607.84C1542.17,1611.05 1536.26,1612.65 1529.78,1612.65ZM1529.78,1606.54C1534.22,1606.54 1538.1,1604.94 1541.4,1601.73C1544.7,1598.52 1547.46,1594.2 1549.68,1588.77C1551.9,1583.34 1553.56,1577.09 1554.63,1570.02C1555.72,1562.96 1556.26,1555.54 1556.26,1547.76C1556.26,1539.98 1555.72,1532.61 1554.63,1525.63C1553.56,1518.66 1551.9,1512.57 1549.68,1507.35C1547.46,1502.14 1544.7,1497.99 1541.4,1494.9C1538.1,1491.82 1534.22,1490.27 1529.78,1490.27C1525.27,1490.27 1521.37,1491.82 1518.07,1494.9C1514.77,1497.99 1512.02,1502.14 1509.83,1507.35C1507.64,1512.57 1506,1518.66 1504.92,1525.63C1503.84,1532.61 1503.3,1539.98 1503.3,1547.76C1503.3,1555.54 1503.84,1562.96 1504.92,1570.02C1506,1577.09 1507.64,1583.34 1509.83,1588.77C1512.02,1594.2 1514.77,1598.52 1518.07,1601.73C1521.37,1604.94 1525.27,1606.54 1529.78,1606.54Z" style="fill:white;fill-rule:nonzero;"/>
                <path d="M1635.03,1609.78L1635.03,1505.92L1614.39,1505.92L1614.39,1500.64C1621.86,1500.64 1627.83,1499.22 1632.3,1496.38C1636.78,1493.54 1640.25,1489.5 1642.72,1484.26L1648.74,1484.26L1648.74,1609.78L1635.03,1609.78Z" style="fill:white;fill-rule:nonzero;"/>
                <path d="M1698.35,1607.01C1705.27,1606.39 1711.99,1604.74 1718.53,1602.05C1725.08,1599.37 1731.05,1595.85 1736.45,1591.5C1741.85,1587.15 1746.46,1582.06 1750.29,1576.23C1754.11,1570.39 1756.83,1564.02 1758.43,1557.11C1755.53,1558.71 1752.76,1560.06 1750.1,1561.14C1747.45,1562.22 1744.87,1563.07 1742.37,1563.68C1739.87,1564.3 1737.42,1564.73 1735.01,1564.98C1732.61,1565.23 1730.23,1565.35 1727.88,1565.35C1722.82,1565.35 1718.27,1564.27 1714.23,1562.11C1710.19,1559.95 1706.76,1557.08 1703.95,1553.5C1701.15,1549.92 1699,1545.82 1697.52,1541.19C1696.04,1536.56 1695.3,1531.81 1695.3,1526.93C1695.3,1521.01 1696.38,1515.45 1698.54,1510.27C1700.7,1505.08 1703.66,1500.56 1707.42,1496.71C1711.19,1492.85 1715.6,1489.81 1720.66,1487.59C1725.72,1485.37 1731.12,1484.26 1736.86,1484.26C1742.6,1484.26 1748,1485.52 1753.06,1488.05C1758.12,1490.58 1762.55,1494.05 1766.35,1498.46C1770.14,1502.88 1773.15,1508.06 1775.37,1514.02C1777.6,1519.97 1778.71,1526.35 1778.71,1533.13C1778.71,1540.42 1777.75,1547.44 1775.84,1554.19C1773.92,1560.95 1771.22,1567.28 1767.74,1573.17C1764.25,1579.07 1760.05,1584.43 1755.15,1589.28C1750.24,1594.12 1744.81,1598.27 1738.85,1601.73C1732.9,1605.18 1726.5,1607.87 1719.64,1609.78C1712.79,1611.7 1705.7,1612.65 1698.35,1612.65L1698.35,1607.01ZM1760.28,1547.39C1760.72,1544.74 1761.06,1542.07 1761.3,1539.38C1761.55,1536.7 1761.67,1533.78 1761.67,1530.63C1761.67,1525.14 1760.99,1519.99 1759.64,1515.17C1758.28,1510.36 1756.4,1506.16 1753.99,1502.59C1751.58,1499.01 1748.73,1496.18 1745.43,1494.11C1742.12,1492.05 1738.53,1491.01 1734.64,1491.01C1731.49,1491.01 1728.47,1491.86 1725.57,1493.56C1722.67,1495.26 1720.09,1497.48 1717.84,1500.22C1715.59,1502.97 1713.8,1506.09 1712.47,1509.57C1711.14,1513.06 1710.48,1516.56 1710.48,1520.08C1710.48,1525.02 1711.01,1529.63 1712.05,1533.92C1713.1,1538.21 1714.72,1541.97 1716.91,1545.21C1719.11,1548.45 1721.9,1551 1725.29,1552.85C1728.69,1554.7 1732.76,1555.63 1737.51,1555.63C1739.36,1555.63 1741.34,1555.4 1743.44,1554.93C1745.53,1554.47 1747.6,1553.85 1749.64,1553.08C1751.67,1552.31 1753.62,1551.43 1755.47,1550.44C1757.32,1549.46 1758.93,1548.44 1760.28,1547.39Z" style="fill:white;fill-rule:nonzero;"/>
            </g>
        </g>
    </g>
</svg>
